<svg xmlns="http://www.w3.org/2000/svg" xmlns:xlink="http://www.w3.org/1999/xlink" width="500" zoomAndPan="magnify" viewBox="0 0 375 374.999991" height="500" preserveAspectRatio="xMidYMid meet" version="1.0"><defs><g/><clipPath id="eba5a01999"><path d="M 218 85 L 306 85 L 306 257 L 218 257 Z M 218 85 " clip-rule="nonzero"/></clipPath><clipPath id="0ca26ee6bf"><path d="M 230.894531 256.285156 L 218.625 59.417969 L 300.21875 54.332031 L 312.488281 251.203125 Z M 230.894531 256.285156 " clip-rule="nonzero"/></clipPath><clipPath id="9e8d20352f"><path d="M 60.496094 266.90625 L 48.226562 70.039062 L 300.484375 54.316406 L 312.753906 251.183594 Z M 60.496094 266.90625 " clip-rule="nonzero"/></clipPath><clipPath id="7b6babd49b"><path d="M 261 57 L 288 57 L 288 87 L 261 87 Z M 261 57 " clip-rule="nonzero"/></clipPath><clipPath id="37f72cc0e3"><path d="M 230.894531 256.285156 L 218.625 59.417969 L 300.21875 54.332031 L 312.488281 251.203125 Z M 230.894531 256.285156 " clip-rule="nonzero"/></clipPath><clipPath id="924049067c"><path d="M 60.496094 266.90625 L 48.226562 70.039062 L 300.484375 54.316406 L 312.753906 251.183594 Z M 60.496094 266.90625 " clip-rule="nonzero"/></clipPath><clipPath id="186d96dfd6"><path d="M 99.714844 63.40625 L 275.214844 63.40625 L 275.214844 281.65625 L 99.714844 281.65625 Z M 99.714844 63.40625 " clip-rule="nonzero"/></clipPath><clipPath id="3b5aea1e85"><path d="M 168.4375 87.042969 L 206.6875 87.042969 L 206.6875 124.542969 L 168.4375 124.542969 Z M 168.4375 87.042969 " clip-rule="nonzero"/></clipPath><clipPath id="e0d66b70c0"><path d="M 17 83 L 198 83 L 198 266 L 17 266 Z M 17 83 " clip-rule="nonzero"/></clipPath><clipPath id="06214ae04d"><path d="M 17.335938 159.839844 L 103.847656 83.316406 L 197.265625 188.929688 L 110.753906 265.453125 Z M 17.335938 159.839844 " clip-rule="nonzero"/></clipPath><clipPath id="72d39925bf"><path d="M 12 12 L 148 12 L 148 144 L 12 144 Z M 12 12 " clip-rule="nonzero"/></clipPath><clipPath id="10a44803b7"><path d="M 0.335938 76.839844 L 86.847656 0.316406 L 180.265625 105.929688 L 93.753906 182.453125 Z M 0.335938 76.839844 " clip-rule="nonzero"/></clipPath><clipPath id="2d8ad579a3"><path d="M 87.121094 0.0742188 L 0.609375 76.597656 L 94.023438 182.210938 L 180.539062 105.6875 Z M 87.121094 0.0742188 " clip-rule="nonzero"/></clipPath><clipPath id="1802ddc7a6"><rect x="0" width="181" y="0" height="183"/></clipPath><clipPath id="41dc511ddc"><path d="M 112.855469 129.589844 L 262.105469 129.589844 L 262.105469 263 L 112.855469 263 Z M 112.855469 129.589844 " clip-rule="nonzero"/></clipPath><clipPath id="c5d6044224"><path d="M 187 154 L 262.105469 154 L 262.105469 191 L 187 191 Z M 187 154 " clip-rule="nonzero"/></clipPath><clipPath id="8d11d83108"><path d="M 112.855469 154 L 188 154 L 188 191 L 112.855469 191 Z M 112.855469 154 " clip-rule="nonzero"/></clipPath><clipPath id="18c43bf09f"><rect x="0" width="238" y="0" height="67"/></clipPath></defs><rect x="-37.5" width="450" fill="#ffffff" y="-37.499999" height="449.999989" fill-opacity="1"/><rect x="-37.5" width="450" fill="#ffffff" y="-37.499999" height="449.999989" fill-opacity="1"/><g clip-path="url(#eba5a01999)"><g clip-path="url(#0ca26ee6bf)"><g clip-path="url(#9e8d20352f)"><path fill="#444a8b" d="M 305.675781 143.871094 C 305.765625 145.316406 305.828125 146.765625 305.859375 148.1875 L 303.972656 148.226562 C 303.921875 145.941406 303.792969 143.582031 303.585938 141.226562 L 305.46875 141.0625 C 305.546875 141.996094 305.617188 142.945312 305.675781 143.871094 Z M 304.953125 136.332031 L 303.082031 136.574219 C 302.789062 134.285156 302.417969 131.957031 301.984375 129.640625 L 303.839844 129.289062 C 304.277344 131.636719 304.65625 134.007812 304.953125 136.332031 Z M 305.855469 152.945312 C 305.796875 155.355469 305.648438 157.757812 305.417969 160.078125 L 303.539062 159.890625 C 303.765625 157.613281 303.910156 155.261719 303.96875 152.898438 Z M 302.871094 124.636719 L 301.03125 125.054688 C 300.523438 122.800781 299.941406 120.511719 299.300781 118.242188 L 301.117188 117.730469 C 301.765625 120.027344 302.355469 122.351562 302.871094 124.636719 Z M 304.816406 164.808594 C 304.441406 167.203125 303.96875 169.5625 303.40625 171.828125 L 301.574219 171.371094 C 302.125 169.164062 302.585938 166.859375 302.949219 164.519531 Z M 299.75 113.179688 L 297.953125 113.753906 C 297.246094 111.546875 296.472656 109.3125 295.652344 107.109375 L 297.421875 106.449219 C 298.253906 108.679688 299.039062 110.945312 299.75 113.179688 Z M 302.097656 176.425781 C 301.355469 178.742188 300.492188 181 299.539062 183.128906 L 297.820312 182.355469 C 298.746094 180.289062 299.582031 178.097656 300.304688 175.847656 Z M 295.695312 102.03125 L 293.949219 102.742188 C 293.070312 100.597656 292.125 98.429688 291.136719 96.296875 L 292.847656 95.503906 C 293.84375 97.660156 294.804688 99.855469 295.695312 102.03125 Z M 297.40625 187.421875 C 296.230469 189.558594 294.921875 191.597656 293.519531 193.480469 L 292.007812 192.355469 C 293.355469 190.542969 294.617188 188.574219 295.753906 186.511719 Z M 290.789062 91.230469 L 289.097656 92.074219 C 288.167969 90.207031 287.179688 88.324219 286.164062 86.476562 L 287.820312 85.566406 C 288.84375 87.441406 289.847656 89.34375 290.789062 91.230469 Z M 290.460938 197.191406 C 288.953125 198.839844 287.332031 200.371094 285.636719 201.746094 C 285.484375 201.867188 285.332031 201.992188 285.175781 202.109375 L 284.007812 200.628906 C 284.15625 200.511719 284.300781 200.394531 284.449219 200.277344 C 286.070312 198.960938 287.625 197.496094 289.070312 195.917969 Z M 281.234375 204.882812 C 279.238281 206.128906 277.085938 207.25 274.839844 208.21875 L 274.09375 206.484375 C 276.253906 205.554688 278.316406 204.480469 280.234375 203.28125 Z M 270.351562 209.90625 C 268.140625 210.628906 265.800781 211.238281 263.394531 211.71875 L 263.027344 209.867188 C 265.359375 209.402344 267.625 208.8125 269.761719 208.117188 Z M 258.679688 212.480469 C 257.089844 212.683594 255.449219 212.839844 253.792969 212.941406 C 253.050781 212.988281 252.292969 213.027344 251.539062 213.050781 L 251.472656 211.164062 C 252.210938 211.140625 252.949219 211.105469 253.675781 211.058594 C 255.292969 210.957031 256.894531 210.804688 258.441406 210.609375 Z M 246.804688 211.199219 L 246.769531 213.085938 C 244.429688 213.039062 242.03125 212.902344 239.632812 212.675781 L 239.808594 210.796875 C 242.164062 211.019531 244.515625 211.152344 246.804688 211.199219 Z M 235.164062 210.25 L 234.902344 212.121094 C 231.863281 211.691406 229.394531 211.195312 227.863281 210.859375 L 228.269531 209.015625 C 229.769531 209.34375 232.1875 209.828125 235.164062 210.25 Z M 223.777344 207.824219 L 223.222656 209.628906 C 220.925781 208.917969 218.664062 208.097656 216.496094 207.183594 L 217.230469 205.445312 C 219.339844 206.335938 221.542969 207.136719 223.777344 207.824219 Z M 213.011719 203.5 L 212.164062 205.183594 C 210.046875 204.117188 207.953125 202.921875 205.945312 201.632812 L 206.964844 200.042969 C 208.917969 201.300781 210.957031 202.460938 213.011719 203.5 Z M 203.140625 197.40625 L 202.015625 198.921875 C 200.152344 197.542969 198.285156 196.027344 196.46875 194.410156 L 197.722656 192.996094 C 199.5 194.578125 201.320312 196.0625 203.140625 197.40625 Z M 194.316406 189.808594 L 192.992188 191.152344 C 191.390625 189.574219 189.777344 187.890625 188.070312 185.992188 L 189.472656 184.730469 C 191.152344 186.597656 192.738281 188.257812 194.316406 189.808594 Z M 186.378906 181.199219 L 184.945312 182.425781 C 183.40625 180.625 181.910156 178.820312 180.460938 177.074219 L 180.390625 176.992188 L 181.84375 175.785156 L 181.910156 175.871094 C 183.355469 177.609375 184.847656 179.410156 186.378906 181.199219 Z M 178.816406 172.15625 L 177.371094 173.375 C 175.574219 171.238281 174.097656 169.5625 172.734375 168.085938 L 174.121094 166.804688 C 175.507812 168.300781 176.996094 170 178.816406 172.15625 Z M 170.785156 163.390625 L 169.476562 164.753906 C 167.660156 163.011719 165.929688 161.546875 164.179688 160.28125 L 165.289062 158.753906 C 167.105469 160.070312 168.902344 161.585938 170.785156 163.390625 Z M 161.21875 156.164062 L 160.3125 157.820312 C 158.25 156.691406 156.183594 155.832031 153.996094 155.203125 L 154.519531 153.390625 C 156.8125 154.050781 159.0625 154.984375 161.21875 156.164062 Z M 161.121094 204.132812 C 161.128906 204.230469 161.136719 204.328125 161.140625 204.425781 L 159.253906 204.527344 L 159.238281 204.253906 C 159.238281 204.253906 159.238281 204.253906 159.238281 204.25 C 159.105469 202.125 158.742188 199.9375 158.160156 197.75 L 159.980469 197.261719 C 160.597656 199.574219 160.984375 201.882812 161.121094 204.132812 Z M 161.015625 209.289062 C 160.75 211.738281 160.175781 214.128906 159.300781 216.386719 L 157.539062 215.707031 C 158.355469 213.601562 158.890625 211.375 159.136719 209.085938 Z M 158.460938 192.683594 L 156.707031 193.378906 C 155.878906 191.296875 154.847656 189.207031 153.644531 187.164062 L 155.273438 186.207031 C 156.523438 188.332031 157.59375 190.507812 158.460938 192.683594 Z M 157.171875 220.765625 C 155.972656 222.796875 154.507812 224.753906 152.828125 226.582031 L 151.4375 225.300781 C 153.03125 223.574219 154.414062 221.722656 155.546875 219.800781 Z M 152.648438 182.1875 L 151.113281 183.289062 C 149.78125 181.429688 148.296875 179.621094 146.703125 177.910156 L 148.082031 176.625 C 149.730469 178.394531 151.265625 180.265625 152.648438 182.1875 Z M 149.789062 152.398438 L 149.535156 154.269531 C 148.734375 154.160156 147.90625 154.082031 147.078125 154.027344 C 145.644531 153.941406 144.160156 153.9375 142.664062 154.023438 L 142.554688 152.136719 C 144.125 152.050781 145.683594 152.050781 147.191406 152.144531 C 148.070312 152.195312 148.945312 152.285156 149.789062 152.398438 Z M 149.328125 229.921875 C 147.484375 231.476562 145.484375 232.867188 143.382812 234.054688 L 142.453125 232.414062 C 144.453125 231.28125 146.355469 229.957031 148.113281 228.476562 Z M 144.675781 173.25 L 143.402344 174.648438 C 141.679688 173.078125 139.859375 171.609375 137.984375 170.285156 L 139.070312 168.746094 C 141.011719 170.113281 142.894531 171.628906 144.675781 173.25 Z M 138.082031 154.542969 C 135.863281 154.917969 133.597656 155.476562 131.351562 156.203125 L 130.769531 154.40625 C 133.105469 153.652344 135.460938 153.070312 137.769531 152.679688 Z M 135.039062 166.148438 L 134.089844 167.78125 C 132.046875 166.589844 129.953125 165.5625 127.863281 164.71875 L 128.566406 162.96875 C 130.742188 163.84375 132.917969 164.914062 135.039062 166.148438 Z M 139.039062 236.167969 C 136.765625 237.101562 134.421875 237.800781 132.082031 238.238281 L 131.734375 236.382812 C 133.949219 235.96875 136.164062 235.308594 138.320312 234.421875 Z M 127.007812 157.820312 C 125.03125 158.660156 123.0625 159.628906 121.148438 160.710938 C 122.117188 160.914062 123.070312 161.148438 124.011719 161.410156 L 123.5 163.226562 C 121.308594 162.609375 119.023438 162.167969 116.710938 161.90625 L 116.917969 160.03125 C 118.152344 160.171875 119.378906 160.359375 120.589844 160.59375 L 119.835938 159.285156 C 121.925781 158.078125 124.09375 157 126.269531 156.082031 Z M 127.191406 236.898438 L 127.261719 238.785156 C 124.800781 238.875 122.359375 238.679688 120 238.199219 L 120.378906 236.347656 C 122.589844 236.800781 124.878906 236.984375 127.191406 236.898438 Z M 116.84375 163.398438 C 114.929688 164.710938 113.078125 166.148438 111.339844 167.664062 L 110.097656 166.242188 C 111.890625 164.675781 113.800781 163.195312 115.777344 161.839844 Z M 112.117188 159.746094 L 112.097656 161.632812 C 110.984375 161.621094 109.851562 161.652344 108.722656 161.722656 C 107.550781 161.796875 106.359375 161.914062 105.175781 162.074219 L 104.925781 160.203125 C 106.148438 160.035156 107.386719 159.914062 108.605469 159.839844 C 109.777344 159.769531 110.957031 159.734375 112.117188 159.746094 Z M 116.007812 235.066406 L 115.328125 236.828125 C 113.070312 235.953125 110.910156 234.789062 108.914062 233.359375 L 110.011719 231.824219 C 111.878906 233.160156 113.898438 234.25 116.007812 235.066406 Z M 107.976562 170.855469 C 106.339844 172.539062 104.820312 174.316406 103.460938 176.136719 L 101.949219 175.007812 C 103.355469 173.121094 104.929688 171.28125 106.621094 169.542969 Z M 106.515625 228.886719 L 105.195312 230.234375 C 103.515625 228.585938 101.960938 226.699219 100.578125 224.632812 L 102.148438 223.582031 C 103.457031 225.542969 104.929688 227.328125 106.515625 228.886719 Z M 100.625 162.90625 C 98.386719 163.421875 96.148438 164.09375 93.964844 164.90625 L 93.304688 163.136719 C 95.566406 162.296875 97.886719 161.601562 100.199219 161.070312 Z M 100.871094 179.96875 C 99.648438 181.988281 98.597656 184.0625 97.75 186.144531 L 96.003906 185.433594 C 96.886719 183.257812 97.980469 181.089844 99.257812 178.992188 Z M 99.824219 219.613281 L 98.144531 220.46875 C 97.070312 218.359375 96.148438 216.109375 95.402344 213.78125 L 97.195312 213.207031 C 97.914062 215.4375 98.796875 217.59375 99.824219 219.613281 Z M 96.273438 190.5 C 95.722656 192.515625 95.355469 194.5625 95.175781 196.578125 C 95.152344 196.808594 95.136719 197.039062 95.121094 197.273438 L 93.238281 197.144531 C 93.257812 196.898438 93.273438 196.65625 93.296875 196.410156 C 93.488281 194.285156 93.875 192.128906 94.457031 190.003906 Z M 96.007812 208.738281 L 94.164062 209.128906 C 93.65625 206.742188 93.332031 204.328125 93.210938 201.972656 L 95.09375 201.875 C 95.214844 204.125 95.519531 206.449219 96.007812 208.738281 Z M 89.691406 166.707031 C 87.601562 167.691406 85.550781 168.820312 83.597656 170.058594 L 82.585938 168.464844 C 84.605469 167.183594 86.726562 166.015625 88.886719 165 Z M 93.335938 263.15625 L 92.613281 264.902344 C 90.398438 263.988281 88.226562 262.921875 86.15625 261.746094 L 87.085938 260.105469 C 89.09375 261.242188 91.195312 262.273438 93.335938 263.15625 Z M 79.78125 172.703125 C 77.933594 174.105469 76.160156 175.632812 74.515625 177.242188 L 73.195312 175.894531 C 74.894531 174.230469 76.726562 172.648438 78.640625 171.199219 Z M 83.152344 257.652344 L 82.085938 259.210938 C 80.113281 257.859375 78.203125 256.375 76.410156 254.792969 L 77.660156 253.378906 C 79.390625 254.910156 81.242188 256.347656 83.152344 257.652344 Z M 71.34375 180.625 C 69.832031 182.386719 68.429688 184.257812 67.175781 186.183594 L 65.597656 185.152344 C 66.890625 183.160156 68.34375 181.21875 69.914062 179.394531 Z M 74.316406 250.164062 L 72.953125 251.46875 C 71.300781 249.742188 69.742188 247.894531 68.316406 245.972656 L 69.832031 244.847656 C 71.210938 246.703125 72.71875 248.492188 74.316406 250.164062 Z M 64.835938 190.175781 C 63.757812 192.226562 62.816406 194.363281 62.042969 196.527344 L 60.265625 195.890625 C 61.070312 193.644531 62.046875 191.425781 63.167969 189.296875 Z M 67.230469 241.007812 L 65.625 242.003906 C 64.363281 239.964844 63.222656 237.832031 62.230469 235.660156 L 63.949219 234.875 C 64.90625 236.976562 66.007812 239.039062 67.230469 241.007812 Z M 60.6875 200.953125 C 60.117188 203.183594 59.703125 205.480469 59.453125 207.777344 L 57.578125 207.574219 C 57.835938 205.1875 58.269531 202.800781 58.859375 200.484375 Z M 62.207031 230.582031 L 60.429688 231.214844 C 59.625 228.953125 58.964844 226.625 58.464844 224.292969 L 60.308594 223.898438 C 60.792969 226.148438 61.433594 228.398438 62.207031 230.582031 Z M 59.171875 212.398438 C 59.152344 213.6875 59.179688 214.996094 59.261719 216.292969 C 59.261719 216.292969 59.261719 216.292969 59.261719 216.296875 C 59.324219 217.304688 59.417969 218.324219 59.542969 219.332031 L 57.667969 219.5625 C 57.539062 218.515625 57.445312 217.460938 57.378906 216.414062 C 57.378906 216.410156 57.378906 216.410156 57.378906 216.410156 C 57.296875 215.066406 57.261719 213.707031 57.28125 212.371094 Z M 59.171875 212.398438 " fill-opacity="1" fill-rule="nonzero"/></g></g></g><g clip-path="url(#7b6babd49b)"><g clip-path="url(#37f72cc0e3)"><g clip-path="url(#924049067c)"><path fill="#444a8b" d="M 286.707031 63.058594 L 285.058594 61.152344 L 278.941406 61.9375 L 278.023438 60.875 C 277.710938 60.515625 277.171875 60.476562 276.8125 60.785156 C 276.453125 61.097656 276.414062 61.636719 276.722656 61.996094 L 276.898438 62.199219 L 274.914062 62.453125 L 274.101562 61.507812 C 273.789062 61.148438 273.25 61.109375 272.890625 61.417969 C 272.53125 61.730469 272.492188 62.273438 272.800781 62.628906 L 272.875 62.714844 L 269.75 63.113281 L 266.859375 59.445312 C 265.941406 58.28125 262.828125 56.484375 261.710938 57.453125 C 260.589844 58.417969 261.921875 61.761719 262.941406 62.832031 L 266.195312 66.265625 L 265.34375 69.300781 L 265.234375 69.175781 C 264.925781 68.816406 264.382812 68.777344 264.023438 69.085938 C 263.667969 69.398438 263.625 69.9375 263.9375 70.296875 L 264.792969 71.285156 L 264.257812 73.210938 L 264.042969 72.964844 C 263.730469 72.605469 263.191406 72.566406 262.832031 72.878906 C 262.472656 73.1875 262.433594 73.730469 262.742188 74.089844 L 263.703125 75.195312 L 262.042969 81.136719 L 263.691406 83.042969 L 271.15625 71.496094 L 279.210938 79.988281 L 277.714844 85.34375 C 277.65625 85.550781 277.707031 85.773438 277.847656 85.9375 C 278.128906 86.257812 278.640625 86.226562 278.875 85.867188 L 281.910156 81.171875 C 281.964844 81.082031 282.011719 80.988281 282.050781 80.894531 C 282.148438 80.871094 282.246094 80.839844 282.34375 80.796875 L 287.425781 78.472656 C 287.816406 78.292969 287.925781 77.792969 287.644531 77.46875 C 287.503906 77.308594 287.292969 77.226562 287.078125 77.253906 L 281.535156 77.960938 C 281.507812 77.964844 281.484375 77.96875 281.457031 77.972656 L 274.214844 68.777344 Z M 286.707031 63.058594 " fill-opacity="1" fill-rule="nonzero"/></g></g></g><g clip-path="url(#186d96dfd6)"><path fill="#444a8b" d="M 187.449219 281.867188 C 183.980469 274.976562 178.644531 270.871094 171.890625 268.726562 C 164.363281 266.308594 156.789062 264.207031 149.261719 261.882812 C 144.925781 260.511719 140.589844 259.097656 136.347656 257.5 C 131.464844 255.675781 127.722656 252.484375 125.261719 247.78125 C 124.941406 247.191406 123.984375 246.734375 123.253906 246.6875 C 119.648438 246.597656 116 246.640625 112.394531 246.640625 C 107.054688 246.640625 103.679688 244.542969 102.035156 239.480469 C 100.941406 236.011719 100.53125 232.316406 99.984375 228.664062 C 99.753906 227.023438 99.847656 225.335938 99.847656 223.644531 C 99.847656 189.609375 99.800781 155.570312 99.890625 121.535156 C 99.890625 116.835938 100.484375 112.042969 101.488281 107.433594 C 102.585938 102.460938 105.960938 98.308594 112.988281 98.71875 C 116.410156 98.902344 119.832031 98.8125 123.253906 98.71875 C 123.890625 98.71875 124.851562 98.402344 125.03125 97.945312 C 127.769531 92.058594 132.925781 89 138.582031 86.996094 C 146.476562 84.257812 154.597656 82.292969 162.539062 79.648438 C 167.648438 77.960938 172.667969 75.816406 177.550781 73.488281 C 181.835938 71.480469 184.894531 66.460938 187.722656 63.40625 C 187.90625 63.449219 198.492188 75.085938 206.066406 77.640625 C 212.957031 79.96875 220.074219 81.703125 227.054688 83.753906 C 232.390625 85.304688 237.640625 87.132812 242.382812 90.097656 C 245.394531 91.96875 247.949219 94.292969 249.546875 97.488281 C 250.09375 98.628906 250.824219 98.8125 251.921875 98.8125 C 255.386719 98.765625 258.902344 98.8125 262.367188 98.8125 C 267.980469 98.8125 271.21875 101.046875 273.136719 106.339844 C 274.871094 111.132812 275.097656 116.148438 275.097656 121.214844 C 275.097656 145.214844 275.097656 169.167969 275.097656 193.167969 C 275.097656 204.074219 275.234375 215.023438 275.007812 225.929688 C 274.917969 230.035156 274.414062 234.230469 273.363281 238.203125 C 271.8125 244.359375 268.300781 246.6875 261.957031 246.6875 C 258.535156 246.6875 255.113281 246.640625 251.691406 246.734375 C 251.054688 246.734375 250.09375 247.054688 249.914062 247.507812 C 247.359375 252.9375 242.703125 256.042969 237.410156 257.914062 C 230.566406 260.375 223.496094 262.15625 216.515625 264.300781 C 212.042969 265.667969 207.527344 266.945312 203.191406 268.679688 C 196.757812 271.234375 190.734375 274.65625 187.449219 281.867188 Z M 187.449219 281.867188 " fill-opacity="1" fill-rule="nonzero"/></g><g clip-path="url(#3b5aea1e85)"><path fill="#ffffff" d="M 191.101562 121.277344 C 195.210938 121.277344 198.949219 119.6875 201.734375 117.101562 C 198.324219 121.464844 193.023438 124.261719 187.054688 124.261719 C 176.78125 124.261719 168.453125 115.921875 168.453125 105.644531 C 168.453125 95.371094 176.78125 87.042969 187.054688 87.042969 C 193.023438 87.042969 198.324219 89.839844 201.734375 94.203125 C 198.949219 91.605469 195.210938 90.027344 191.101562 90.027344 C 182.46875 90.027344 175.480469 97.027344 175.480469 105.644531 C 175.480469 114.265625 182.46875 121.277344 191.101562 121.277344 Z M 206.546875 103.976562 L 201.324219 103.976562 L 199.703125 99.003906 L 198.085938 103.976562 L 192.851562 103.976562 L 197.078125 107.050781 L 195.460938 112.023438 L 199.691406 108.945312 L 203.921875 112.023438 L 202.304688 107.050781 Z M 206.546875 103.976562 " fill-opacity="1" fill-rule="nonzero"/></g><g clip-path="url(#e0d66b70c0)"><g clip-path="url(#06214ae04d)"><g transform="matrix(1, 0, 0, 1, 17, 83)"><g clip-path="url(#1802ddc7a6)"><g clip-path="url(#72d39925bf)"><g clip-path="url(#10a44803b7)"><g clip-path="url(#2d8ad579a3)"><path fill="#5e65b4" d="M 101.859375 16.738281 L 101.691406 16.546875 C 101.550781 16.570312 101.394531 16.539062 101.21875 16.453125 C 91.769531 11.832031 79.914062 10.882812 70.746094 16.734375 C 62.28125 22.128906 58.359375 32.285156 59.0625 42.074219 C 59.527344 48.457031 61.328125 54.304688 64.472656 59.621094 C 64.753906 60.097656 64.675781 60.167969 64.238281 59.835938 C 59.328125 56.105469 53.875 53.621094 47.882812 52.382812 C 39.160156 50.582031 29.519531 52.570312 22.828125 58.683594 C 12.910156 67.746094 10.925781 80.894531 14.90625 93.28125 C 14.921875 93.335938 14.957031 93.363281 15.011719 93.371094 C 15.066406 93.378906 15.105469 93.355469 15.132812 93.308594 C 16.71875 90.738281 18.519531 88.304688 20.53125 86.007812 C 24.015625 82.035156 28.238281 78.65625 33.199219 75.875 C 33.472656 75.722656 33.398438 75.359375 33.363281 75.089844 C 32.925781 71.65625 32.753906 68.140625 32.851562 64.550781 C 32.855469 64.449219 32.894531 64.367188 32.976562 64.304688 C 33.054688 64.242188 33.144531 64.222656 33.242188 64.242188 C 33.300781 64.253906 33.375 64.328125 33.464844 64.464844 C 35.308594 67.351562 37.058594 70.265625 38.71875 73.210938 C 38.742188 73.25 38.777344 73.269531 38.824219 73.261719 C 38.871094 73.253906 38.898438 73.222656 38.90625 73.175781 C 39.726562 68.945312 41.308594 64.609375 43.976562 61.199219 C 44.078125 61.070312 44.210938 61.03125 44.371094 61.082031 C 44.53125 61.132812 44.613281 61.246094 44.617188 61.410156 L 44.839844 69.78125 C 44.847656 70.070312 44.957031 70.113281 45.171875 69.921875 C 46.308594 68.886719 47.519531 67.730469 48.769531 66.929688 C 52.472656 64.550781 56.535156 63.511719 60.96875 63.8125 C 61.164062 63.824219 61.175781 63.878906 61.007812 63.976562 C 60.828125 64.082031 60.566406 64.214844 60.226562 64.375 C 56.929688 65.953125 53.582031 68.066406 50.191406 70.710938 C 46.183594 73.839844 42.867188 77.257812 40.25 80.964844 C 36.609375 86.121094 34.703125 91.765625 34.539062 97.894531 C 34.300781 106.742188 37.746094 115.792969 43.207031 122.667969 C 46.332031 126.597656 49.964844 129.988281 54.113281 132.839844 C 54.140625 132.855469 54.167969 132.855469 54.195312 132.835938 C 54.222656 132.816406 54.230469 132.789062 54.21875 132.757812 C 51.894531 125.777344 50.847656 118.613281 51.078125 111.257812 C 51.082031 111.160156 51.050781 111.070312 50.988281 110.996094 C 50.691406 110.648438 50.199219 110.316406 49.953125 110.097656 C 47.699219 108.058594 45.683594 105.796875 43.910156 103.304688 C 43.84375 103.210938 43.84375 103.117188 43.914062 103.023438 C 43.984375 102.929688 44.074219 102.902344 44.183594 102.941406 L 52.191406 105.804688 C 52.246094 105.824219 52.296875 105.816406 52.34375 105.777344 C 52.390625 105.742188 52.414062 105.695312 52.40625 105.632812 C 52.019531 102.167969 52.054688 98.703125 52.511719 95.238281 C 52.527344 95.136719 52.503906 95.042969 52.445312 94.957031 C 48.367188 89.015625 49.117188 81.355469 52.761719 75.453125 C 53.148438 74.832031 53.636719 74.15625 54.226562 73.429688 C 54.753906 72.78125 55.289062 72.144531 55.839844 71.527344 C 55.914062 71.445312 55.996094 71.4375 56.085938 71.5 C 56.175781 71.558594 56.199219 71.640625 56.152344 71.738281 C 52.84375 78.355469 53.207031 86.195312 56.867188 92.640625 C 58.925781 96.265625 62.085938 99.496094 65.441406 102.078125 C 65.824219 102.375 65.945312 102.289062 65.804688 101.828125 C 63.671875 94.824219 64.164062 86.425781 67.96875 79.894531 C 68.015625 79.816406 67.996094 79.765625 67.90625 79.746094 L 60.316406 77.90625 C 60.214844 77.878906 60.148438 77.816406 60.121094 77.714844 C 60.058594 77.476562 60.183594 77.289062 60.492188 77.152344 C 63.503906 75.832031 66.648438 75.222656 69.925781 75.320312 C 70.125 75.328125 70.28125 75.3125 70.390625 75.277344 C 70.574219 75.222656 70.683594 75.121094 70.714844 74.972656 C 70.738281 74.871094 70.800781 74.816406 70.902344 74.800781 C 71.003906 74.789062 71.078125 74.828125 71.125 74.917969 C 74.09375 80.671875 77.335938 86.222656 80.855469 91.570312 C 81.886719 93.140625 82.957031 94.683594 84.070312 96.195312 C 84.492188 96.773438 85.152344 97.863281 85.863281 98.621094 C 86.308594 99.089844 86.496094 99.65625 86.898438 100.121094 C 88.355469 101.8125 89.703125 103.753906 91.070312 105.308594 C 93.402344 107.960938 95.746094 110.605469 98.097656 113.242188 C 100.101562 115.488281 103.410156 118.683594 108.03125 122.828125 C 117.0625 130.929688 126.835938 137.949219 137.355469 143.886719 C 137.476562 143.953125 137.589844 143.941406 137.695312 143.851562 L 147.699219 135.070312 C 147.90625 134.890625 147.882812 134.742188 147.632812 134.628906 C 135.890625 129.285156 124.96875 122.472656 114.875 114.488281 C 106.171875 107.601562 98.359375 100.265625 91.441406 92.480469 C 86.109375 86.476562 81.210938 80.136719 76.75 73.464844 C 76.136719 72.542969 75.546875 71.605469 74.980469 70.652344 C 74.929688 70.566406 74.953125 70.523438 75.054688 70.515625 L 75.960938 70.472656 C 76.050781 70.46875 76.105469 70.425781 76.121094 70.335938 C 76.183594 70 76.261719 69.496094 76.355469 68.820312 C 76.691406 66.402344 77.445312 64.042969 78.621094 61.753906 C 78.863281 61.28125 79.203125 60.855469 79.480469 60.382812 C 79.546875 60.265625 79.648438 60.21875 79.78125 60.246094 C 79.917969 60.273438 79.992188 60.355469 80.007812 60.492188 L 80.980469 67.957031 C 81 68.121094 81.085938 68.171875 81.242188 68.109375 C 88.296875 65.328125 96.535156 65.9375 103.429688 68.957031 C 103.488281 68.980469 103.542969 68.972656 103.585938 68.921875 C 103.632812 68.871094 103.636719 68.816406 103.605469 68.761719 C 100.507812 63.304688 96.167969 58.570312 90.386719 56.054688 C 85.191406 53.792969 79.90625 53.589844 74.527344 55.449219 C 74.4375 55.480469 74.375 55.457031 74.328125 55.378906 C 74.285156 55.296875 74.296875 55.226562 74.371094 55.171875 C 81.074219 49.714844 91 48.890625 97.792969 54.75 C 97.867188 54.808594 97.949219 54.839844 98.042969 54.839844 C 101.597656 54.761719 105.101562 55.132812 108.558594 55.941406 C 108.609375 55.957031 108.652344 55.941406 108.691406 55.90625 C 108.726562 55.871094 108.742188 55.828125 108.730469 55.777344 C 108.242188 53.242188 107.671875 50.707031 107.019531 48.171875 C 107.007812 48.117188 106.96875 48.007812 106.910156 47.84375 C 106.847656 47.683594 106.839844 47.5625 106.882812 47.488281 C 107.019531 47.246094 107.191406 47.21875 107.402344 47.398438 C 110.070312 49.695312 111.960938 52.214844 114.007812 55.054688 C 114.097656 55.175781 114.21875 55.246094 114.367188 55.261719 C 121.617188 55.882812 128.535156 57.789062 135.113281 60.972656 C 135.175781 61 135.230469 61.027344 135.273438 61.054688 C 135.320312 61.082031 135.363281 61.074219 135.402344 61.039062 C 135.441406 61 135.445312 60.957031 135.421875 60.910156 C 132.828125 55.867188 129.230469 51.21875 125.277344 47.457031 C 124.136719 46.375 122.640625 45.179688 120.785156 43.878906 C 116.628906 40.957031 112.089844 38.890625 107.167969 37.679688 C 97.476562 35.292969 88.203125 38.035156 80.414062 44.015625 C 75.664062 47.667969 71.679688 51.992188 68.464844 56.996094 C 68.441406 57.035156 68.40625 57.046875 68.363281 57.03125 C 68.320312 57.019531 68.300781 56.988281 68.308594 56.941406 C 68.6875 52.828125 70.109375 49.183594 72.566406 46.011719 C 73.785156 44.441406 75.5 43.003906 77.097656 41.6875 C 77.222656 41.582031 77.207031 41.511719 77.042969 41.476562 C 74.519531 40.933594 71.964844 40.453125 69.375 40.03125 C 69.125 39.988281 68.820312 39.886719 68.457031 39.71875 C 68.375 39.679688 68.363281 39.628906 68.417969 39.558594 C 68.667969 39.238281 68.917969 39.019531 69.164062 38.898438 C 72.835938 37.109375 76.734375 36.191406 80.855469 36.140625 C 80.9375 36.140625 80.992188 36.101562 81.019531 36.023438 C 81.046875 35.949219 81.027344 35.882812 80.964844 35.832031 L 72.9375 29.269531 C 72.84375 29.191406 72.816406 29.09375 72.859375 28.976562 C 72.902344 28.863281 72.984375 28.808594 73.109375 28.8125 C 73.46875 28.824219 73.851562 28.859375 74.253906 28.914062 C 77.582031 29.363281 80.828125 30.078125 83.996094 31.050781 C 84.140625 31.097656 84.253906 31.054688 84.332031 30.929688 C 88.503906 24.335938 94.433594 19.859375 101.859375 16.738281 Z M 101.859375 16.738281 " fill-opacity="1" fill-rule="nonzero"/></g></g></g></g></g></g></g><g clip-path="url(#41dc511ddc)"><path fill="#2a2c41" d="M 262.164062 160.511719 L 262.164062 262.847656 L 112.855469 262.847656 L 112.855469 160.511719 L 187.230469 129.84375 Z M 262.164062 160.511719 " fill-opacity="1" fill-rule="nonzero"/></g><g clip-path="url(#c5d6044224)"><path fill="#fdbf50" d="M 262.164062 179.476562 L 262.164062 190.984375 L 187.710938 165.753906 L 187.710938 154.257812 Z M 262.164062 179.476562 " fill-opacity="1" fill-rule="nonzero"/></g><g clip-path="url(#8d11d83108)"><path fill="#fdbf50" d="M 187.710938 154.257812 L 187.710938 165.753906 L 112.855469 190.996094 L 112.855469 179.488281 Z M 187.710938 154.257812 " fill-opacity="1" fill-rule="nonzero"/></g><g transform="matrix(1, 0, 0, 1, 68, 231)"><g clip-path="url(#18c43bf09f)"><g fill="#ffffff" fill-opacity="1"><g transform="translate(11.22541, 54.172597)"><g><path d="M 21.925781 -37.203125 L 37.765625 -12.558594 C 38.824219 -10.957031 39.433594 -9.515625 39.589844 -8.226562 C 39.804688 -6.441406 39.363281 -4.761719 38.269531 -3.1875 C 37.523438 -2.113281 36.46875 -1.128906 35.097656 -0.222656 C 33.464844 0.859375 31.964844 1.480469 30.597656 1.648438 C 28.953125 1.847656 27.460938 1.578125 26.125 0.839844 C 25.0625 0.257812 24.210938 -0.480469 23.574219 -1.363281 C 23.328125 -1.707031 22.992188 -2.199219 22.570312 -2.839844 L 19.476562 -7.671875 L 23.558594 -10.28125 L 24.140625 -5.472656 L 11.144531 -3.898438 L 10.5625 -8.707031 L 15.148438 -7.144531 L 13.320312 -1.78125 C 13.023438 -0.945312 12.777344 -0.3125 12.582031 0.117188 C 12.191406 0.972656 11.597656 1.785156 10.808594 2.550781 C 9.671875 3.652344 8.257812 4.308594 6.570312 4.511719 C 5.203125 4.679688 3.597656 4.429688 1.75 3.773438 C 0.238281 3.253906 -1.015625 2.566406 -2.003906 1.710938 C -3.460938 0.449219 -4.296875 -1.082031 -4.515625 -2.878906 C -4.671875 -4.167969 -4.417969 -5.738281 -3.761719 -7.582031 L 5.707031 -35.28125 C 6.261719 -36.925781 7.230469 -38.304688 8.617188 -39.417969 C 9.988281 -40.519531 11.519531 -41.171875 13.21875 -41.378906 C 15.015625 -41.59375 16.679688 -41.328125 18.214844 -40.574219 C 19.675781 -39.859375 20.902344 -38.753906 21.890625 -37.253906 Z M 13.808594 -31.910156 C 13.769531 -31.96875 13.746094 -32.003906 13.734375 -32.015625 C 13.789062 -31.964844 13.859375 -31.917969 13.949219 -31.875 C 14.058594 -31.820312 14.171875 -31.785156 14.285156 -31.769531 C 14.320312 -31.761719 14.355469 -31.761719 14.382812 -31.761719 L 14.382812 -31.757812 C 14.519531 -31.777344 14.621094 -31.8125 14.6875 -31.867188 C 14.773438 -31.933594 14.835938 -32.027344 14.875 -32.148438 L 5.363281 -4.324219 C 5.238281 -3.976562 5.160156 -3.707031 5.121094 -3.515625 C 5.117188 -3.5 5.113281 -3.488281 5.113281 -3.484375 C 5.117188 -3.5 5.117188 -3.519531 5.121094 -3.546875 C 5.132812 -3.695312 5.125 -3.863281 5.105469 -4.046875 C 5.058594 -4.417969 4.945312 -4.765625 4.757812 -5.085938 C 4.632812 -5.304688 4.492188 -5.480469 4.339844 -5.613281 C 4.3125 -5.636719 4.292969 -5.652344 4.277344 -5.660156 C 4.296875 -5.648438 4.320312 -5.636719 4.355469 -5.617188 C 4.503906 -5.539062 4.722656 -5.449219 5.007812 -5.351562 C 5.335938 -5.234375 5.589844 -5.160156 5.777344 -5.125 L 5.777344 -5.121094 C 5.667969 -5.128906 5.542969 -5.125 5.402344 -5.105469 C 5.242188 -5.085938 5.066406 -5.035156 4.878906 -4.953125 C 4.578125 -4.824219 4.304688 -4.640625 4.058594 -4.402344 C 4.070312 -4.410156 4.078125 -4.417969 4.078125 -4.421875 C 4.066406 -4.40625 4.050781 -4.386719 4.03125 -4.363281 C 3.933594 -4.234375 3.847656 -4.082031 3.765625 -3.90625 C 3.847656 -4.082031 3.972656 -4.417969 4.148438 -4.90625 L 6.957031 -13.148438 L 25.996094 -15.457031 L 30.652344 -8.183594 C 31.003906 -7.648438 31.269531 -7.261719 31.441406 -7.019531 C 31.226562 -7.320312 31.011719 -7.527344 30.796875 -7.644531 C 30.511719 -7.804688 30.214844 -7.90625 29.910156 -7.953125 C 29.726562 -7.980469 29.566406 -7.988281 29.429688 -7.972656 C 29.292969 -7.953125 29.167969 -7.929688 29.066406 -7.898438 L 29.0625 -7.898438 C 29.234375 -7.976562 29.464844 -8.113281 29.753906 -8.304688 C 29.976562 -8.449219 30.152344 -8.582031 30.28125 -8.699219 C 30.3125 -8.730469 30.339844 -8.753906 30.355469 -8.773438 C 30.347656 -8.761719 30.335938 -8.746094 30.316406 -8.71875 C 30.207031 -8.5625 30.121094 -8.367188 30.050781 -8.136719 C 29.953125 -7.789062 29.925781 -7.429688 29.96875 -7.058594 C 29.992188 -6.875 30.027344 -6.710938 30.074219 -6.570312 C 30.082031 -6.546875 30.089844 -6.527344 30.09375 -6.511719 C 30.09375 -6.515625 30.085938 -6.527344 30.082031 -6.542969 C 29.996094 -6.71875 29.84375 -6.976562 29.617188 -7.320312 L 13.773438 -31.964844 Z M 20 -21.300781 L 17.683594 -14.496094 L 13.097656 -16.058594 L 12.515625 -20.871094 L 18.753906 -21.625 L 19.335938 -16.816406 L 15.273438 -14.179688 L 11.351562 -20.226562 L 15.414062 -22.863281 Z M 14.046875 -33.871094 L 27.625 -12.941406 L 6.023438 -10.324219 L 10.828125 -24.425781 Z M 14.046875 -33.871094 "/></g></g></g><g fill="#ffffff" fill-opacity="1"><g transform="translate(46.417227, 49.982494)"><g><path d="M -1.488281 -1.699219 C -3.175781 -3.472656 -4.097656 -5.328125 -4.25 -7.273438 C -4.355469 -8.609375 -4.042969 -9.972656 -3.304688 -11.363281 C -2.835938 -12.25 -2.164062 -13.1875 -1.296875 -14.183594 C -0.546875 -15.027344 0.269531 -15.691406 1.15625 -16.179688 C 2.167969 -16.738281 3.242188 -17.0625 4.375 -17.152344 C 5.757812 -17.261719 7.191406 -16.921875 8.667969 -16.132812 C 9.621094 -15.625 10.652344 -14.894531 11.765625 -13.945312 L 11.941406 -13.792969 L 12.105469 -13.625 C 12.199219 -13.53125 12.417969 -13.394531 12.769531 -13.222656 C 12.871094 -13.171875 12.9375 -13.144531 12.96875 -13.136719 C 12.859375 -13.164062 12.726562 -13.167969 12.5625 -13.15625 C 12.863281 -13.179688 13.078125 -13.214844 13.207031 -13.261719 C 13.097656 -13.222656 12.964844 -13.128906 12.808594 -12.980469 C 12.558594 -12.738281 12.378906 -12.457031 12.277344 -12.136719 C 12.246094 -12.035156 12.226562 -11.945312 12.21875 -11.867188 L 12.214844 -11.871094 C 12.261719 -11.265625 12.472656 -10.71875 12.851562 -10.242188 C 13.070312 -9.960938 13.292969 -9.761719 13.515625 -9.648438 C 13.207031 -9.804688 12.746094 -9.914062 12.125 -9.976562 C 10.660156 -10.128906 9.097656 -10.425781 7.433594 -10.867188 C 5.75 -11.316406 4.164062 -11.875 2.675781 -12.550781 C 0.589844 -13.496094 -1.164062 -15.035156 -2.589844 -17.164062 C -3.972656 -19.230469 -4.777344 -21.691406 -5.003906 -24.539062 C -5.164062 -26.582031 -4.933594 -28.535156 -4.304688 -30.410156 C -3.683594 -32.246094 -2.699219 -33.957031 -1.347656 -35.542969 C 0.0625 -37.195312 1.769531 -38.484375 3.777344 -39.40625 C 5.660156 -40.269531 7.773438 -40.796875 10.121094 -40.980469 C 12.496094 -41.171875 14.722656 -41.027344 16.796875 -40.554688 C 19.023438 -40.046875 20.71875 -39.375 21.882812 -38.542969 L 19.066406 -34.601562 L 21.683594 -38.679688 L 23.140625 -37.746094 L 23.332031 -37.589844 C 25.476562 -35.882812 26.625 -34.015625 26.785156 -31.992188 C 26.914062 -30.367188 26.398438 -28.539062 25.230469 -26.511719 C 24.480469 -25.195312 23.625 -24.132812 22.664062 -23.324219 C 21.355469 -22.222656 19.902344 -21.609375 18.304688 -21.480469 C 16.695312 -21.355469 14.960938 -21.792969 13.101562 -22.792969 C 12.722656 -23.003906 12.285156 -23.308594 11.785156 -23.707031 C 11.667969 -23.800781 11.589844 -23.863281 11.542969 -23.890625 L 14.039062 -28.042969 L 11.820312 -23.734375 C 11.933594 -23.675781 12.027344 -23.640625 12.109375 -23.628906 C 12.0625 -23.636719 11.976562 -23.636719 11.851562 -23.625 C 11.804688 -23.621094 11.769531 -23.617188 11.742188 -23.609375 C 11.75 -23.613281 11.761719 -23.617188 11.78125 -23.625 C 11.894531 -23.667969 12.007812 -23.734375 12.117188 -23.828125 C 12.40625 -24.074219 12.625 -24.386719 12.78125 -24.773438 C 12.925781 -25.128906 12.984375 -25.472656 12.960938 -25.800781 C 12.925781 -26.222656 12.78125 -26.625 12.523438 -27 C 12.324219 -27.296875 12.101562 -27.511719 11.859375 -27.644531 C 12.082031 -27.519531 12.449219 -27.4375 12.949219 -27.398438 C 14.34375 -27.289062 15.851562 -27.078125 17.480469 -26.761719 C 19.195312 -26.429688 20.804688 -25.976562 22.300781 -25.410156 C 24.488281 -24.578125 26.320312 -23.078125 27.804688 -20.90625 C 29.203125 -18.863281 30.015625 -16.390625 30.246094 -13.492188 C 30.46875 -10.65625 30.078125 -8.0625 29.070312 -5.710938 C 28.042969 -3.308594 26.5625 -1.371094 24.632812 0.0976562 C 21.480469 2.535156 17.980469 3.910156 14.128906 4.214844 C 12.222656 4.363281 10.378906 4.273438 8.605469 3.933594 C 6.757812 3.582031 5.183594 3.050781 3.878906 2.335938 L 6.199219 -1.914062 L 4.03125 2.417969 C 1.675781 1.238281 -0.0859375 -0.0585938 -1.253906 -1.476562 L 2.484375 -4.558594 L -1.011719 -1.203125 L -1.476562 -1.6875 Z M 5.511719 -8.398438 L 6.105469 -7.78125 L 6.21875 -7.640625 C 6.316406 -7.527344 6.5 -7.371094 6.769531 -7.175781 C 7.1875 -6.882812 7.71875 -6.570312 8.371094 -6.246094 L 8.445312 -6.207031 L 8.523438 -6.164062 C 8.9375 -5.941406 9.566406 -5.746094 10.417969 -5.585938 C 11.339844 -5.410156 12.320312 -5.363281 13.363281 -5.445312 C 15.292969 -5.597656 17.09375 -6.320312 18.765625 -7.613281 C 19.339844 -8.050781 19.804688 -8.6875 20.164062 -9.523438 C 20.542969 -10.410156 20.683594 -11.480469 20.585938 -12.726562 C 20.492188 -13.910156 20.230469 -14.816406 19.804688 -15.4375 C 19.464844 -15.9375 19.148438 -16.242188 18.859375 -16.351562 C 17.878906 -16.722656 16.804688 -17.023438 15.632812 -17.25 C 14.367188 -17.496094 13.226562 -17.660156 12.199219 -17.738281 C 10.285156 -17.886719 8.597656 -18.367188 7.136719 -19.183594 C 6.050781 -19.789062 5.179688 -20.574219 4.523438 -21.535156 C 3.8125 -22.578125 3.402344 -23.746094 3.300781 -25.03125 C 3.207031 -26.226562 3.375 -27.351562 3.800781 -28.40625 C 4.242188 -29.496094 4.921875 -30.429688 5.847656 -31.214844 C 7.28125 -32.429688 9.027344 -33.121094 11.085938 -33.285156 C 13.023438 -33.4375 14.746094 -33.125 16.253906 -32.347656 L 16.398438 -32.277344 L 16.535156 -32.195312 C 16.953125 -31.941406 17.390625 -31.632812 17.847656 -31.265625 C 17.941406 -31.191406 18.011719 -31.136719 18.058594 -31.101562 C 17.988281 -31.15625 17.867188 -31.226562 17.691406 -31.324219 C 17.910156 -31.207031 18.070312 -31.132812 18.171875 -31.105469 C 18.015625 -31.148438 17.804688 -31.160156 17.539062 -31.140625 C 17.070312 -31.101562 16.703125 -30.96875 16.429688 -30.738281 C 16.421875 -30.734375 16.414062 -30.726562 16.410156 -30.722656 C 16.410156 -30.726562 16.414062 -30.726562 16.417969 -30.730469 C 16.4375 -30.753906 16.464844 -30.785156 16.492188 -30.820312 C 16.59375 -30.949219 16.707031 -31.125 16.832031 -31.34375 C 17.011719 -31.65625 17.128906 -31.890625 17.183594 -32.046875 C 17.175781 -32.019531 17.164062 -31.972656 17.152344 -31.898438 C 17.117188 -31.695312 17.109375 -31.46875 17.128906 -31.226562 C 17.160156 -30.839844 17.246094 -30.480469 17.390625 -30.148438 C 17.464844 -29.980469 17.546875 -29.835938 17.632812 -29.722656 C 17.644531 -29.707031 17.652344 -29.695312 17.660156 -29.6875 C 17.648438 -29.703125 17.632812 -29.71875 17.609375 -29.738281 C 17.53125 -29.816406 17.425781 -29.910156 17.292969 -30.011719 L 20.3125 -33.800781 L 17.695312 -29.726562 L 16.34375 -30.59375 L 16.246094 -30.664062 C 16.300781 -30.625 16.335938 -30.601562 16.351562 -30.59375 C 16.289062 -30.625 16.199219 -30.660156 16.082031 -30.703125 C 15.71875 -30.835938 15.238281 -30.972656 14.640625 -31.109375 C 13.53125 -31.363281 12.277344 -31.433594 10.886719 -31.324219 C 8.671875 -31.148438 7.050781 -30.457031 6.023438 -29.257812 C 5.480469 -28.621094 5.101562 -27.976562 4.882812 -27.324219 C 4.671875 -26.703125 4.597656 -26.03125 4.65625 -25.304688 C 4.746094 -24.136719 5.015625 -23.21875 5.460938 -22.554688 C 5.863281 -21.953125 6.269531 -21.5625 6.675781 -21.375 C 7.675781 -20.921875 8.757812 -20.542969 9.917969 -20.234375 C 11.09375 -19.921875 12.164062 -19.714844 13.121094 -19.617188 C 14.921875 -19.429688 16.507812 -18.992188 17.878906 -18.300781 C 18.945312 -17.761719 19.808594 -17.066406 20.480469 -16.214844 C 21.304688 -15.160156 21.769531 -13.96875 21.875 -12.636719 C 21.96875 -11.410156 21.851562 -10.261719 21.511719 -9.199219 C 21.113281 -7.953125 20.449219 -6.882812 19.515625 -5.984375 C 18 -4.535156 15.9375 -3.703125 13.328125 -3.5 C 11.75 -3.375 10.136719 -3.71875 8.484375 -4.535156 C 7.125 -5.203125 6.007812 -5.992188 5.136719 -6.894531 L 8.621094 -10.261719 L 5.476562 -6.574219 C 4.894531 -7.070312 4.4375 -7.410156 4.101562 -7.589844 C 4.070312 -7.605469 4.050781 -7.613281 4.042969 -7.617188 C 4.074219 -7.605469 4.113281 -7.589844 4.164062 -7.578125 C 4.457031 -7.492188 4.78125 -7.464844 5.140625 -7.496094 C 5.398438 -7.515625 5.628906 -7.582031 5.839844 -7.699219 C 5.902344 -7.734375 5.953125 -7.765625 5.992188 -7.800781 C 5.996094 -7.804688 6 -7.808594 6 -7.808594 C 5.992188 -7.800781 5.992188 -7.800781 6 -7.808594 C 5.621094 -7.375 5.375 -7.046875 5.253906 -6.820312 C 5.273438 -6.855469 5.296875 -6.925781 5.324219 -7.027344 C 5.410156 -7.335938 5.4375 -7.671875 5.40625 -8.039062 C 5.382812 -8.332031 5.324219 -8.566406 5.226562 -8.738281 C 5.265625 -8.671875 5.363281 -8.554688 5.523438 -8.386719 Z M 5.511719 -8.398438 "/></g></g></g><g fill="#ffffff" fill-opacity="1"><g transform="translate(73.237552, 47.81894)"><g><path d="M 19.203125 -21.699219 C 24.324219 -17.175781 27.992188 -13.734375 30.203125 -11.378906 C 32.113281 -9.410156 33.109375 -7.410156 33.195312 -5.375 C 33.289062 -3.09375 32.191406 -0.878906 29.898438 1.269531 C 29.023438 2.089844 28.171875 2.742188 27.351562 3.21875 C 26.15625 3.914062 24.960938 4.285156 23.761719 4.335938 C 22.363281 4.394531 20.992188 4.003906 19.648438 3.164062 C 18.785156 2.628906 17.914062 1.882812 17.027344 0.933594 L 6.183594 -10.449219 L 9.691406 -13.789062 L 14.53125 -13.988281 L 14.914062 -4.78125 C 14.953125 -3.808594 14.949219 -3.035156 14.894531 -2.46875 C 14.808594 -1.546875 14.523438 -0.582031 14.039062 0.421875 C 12.820312 3.035156 10.222656 4.425781 6.246094 4.589844 C 4.433594 4.664062 2.867188 4.429688 1.550781 3.886719 C 0.636719 3.507812 -0.15625 2.988281 -0.824219 2.324219 C -1.558594 1.597656 -2.101562 0.742188 -2.457031 -0.234375 L 2.097656 -1.882812 L -2.363281 0.00390625 C -2.800781 -1.03125 -3.054688 -2.394531 -3.125 -4.078125 L -4.214844 -30.335938 C -4.253906 -31.269531 -4.25 -32.019531 -4.199219 -32.59375 C -4.113281 -33.542969 -3.828125 -34.527344 -3.34375 -35.539062 C -2.121094 -38.152344 0.476562 -39.539062 4.453125 -39.707031 C 6.242188 -39.78125 7.789062 -39.558594 9.089844 -39.039062 C 9.992188 -38.683594 10.78125 -38.1875 11.453125 -37.5625 C 12.199219 -36.859375 12.765625 -36.03125 13.144531 -35.074219 L 13.191406 -34.957031 L 13.234375 -34.839844 C 13.5625 -33.871094 13.757812 -32.601562 13.824219 -31.035156 L 14.199219 -22.015625 L 9.359375 -21.816406 L 5.605469 -24.882812 C 9.667969 -29.855469 12.949219 -33.925781 15.449219 -37.097656 C 17.410156 -39.601562 19.546875 -40.902344 21.851562 -40.996094 C 23.871094 -41.082031 26.003906 -40.230469 28.246094 -38.453125 C 30.710938 -36.5 31.992188 -34.382812 32.085938 -32.101562 C 32.167969 -30.105469 31.390625 -28.066406 29.753906 -25.988281 C 27.910156 -23.671875 25.09375 -20.539062 21.304688 -16.589844 L 19.472656 -14.699219 L 15.996094 -18.070312 Z M 8.988281 -17.800781 L 14.3125 -23.296875 C 17.898438 -27.03125 20.507812 -29.929688 22.140625 -31.984375 C 22.339844 -32.238281 22.46875 -32.421875 22.519531 -32.539062 C 22.429688 -32.335938 22.390625 -32.054688 22.40625 -31.699219 C 22.417969 -31.335938 22.488281 -31.003906 22.617188 -30.695312 C 22.675781 -30.546875 22.738281 -30.429688 22.800781 -30.339844 C 22.726562 -30.441406 22.535156 -30.617188 22.230469 -30.859375 C 21.871094 -31.144531 21.59375 -31.332031 21.398438 -31.425781 C 21.425781 -31.414062 21.472656 -31.398438 21.546875 -31.378906 C 21.761719 -31.324219 22 -31.304688 22.253906 -31.316406 C 22.617188 -31.332031 22.953125 -31.402344 23.257812 -31.527344 C 23.40625 -31.585938 23.523438 -31.648438 23.609375 -31.710938 C 23.496094 -31.628906 23.316406 -31.429688 23.058594 -31.101562 C 20.527344 -27.886719 17.210938 -23.769531 13.109375 -18.75 L 5.046875 -8.882812 L 4.144531 -30.632812 C 4.125 -31.03125 4.101562 -31.355469 4.066406 -31.609375 C 4.054688 -31.691406 4.042969 -31.753906 4.035156 -31.800781 C 4.035156 -31.789062 4.042969 -31.765625 4.058594 -31.722656 L 8.644531 -33.28125 L 4.144531 -31.488281 C 4.296875 -31.105469 4.523438 -30.773438 4.824219 -30.492188 C 5.050781 -30.28125 5.28125 -30.128906 5.515625 -30.035156 C 5.5625 -30.015625 5.601562 -30.003906 5.628906 -29.996094 C 5.613281 -30 5.585938 -30.003906 5.546875 -30.011719 C 5.371094 -30.03125 5.140625 -30.035156 4.855469 -30.023438 C 4.5625 -30.011719 4.316406 -29.988281 4.121094 -29.957031 C 4.0625 -29.945312 4.015625 -29.9375 3.980469 -29.925781 C 3.972656 -29.925781 3.972656 -29.925781 3.972656 -29.925781 C 3.980469 -29.925781 3.992188 -29.933594 4.007812 -29.9375 C 4.191406 -30.007812 4.378906 -30.125 4.578125 -30.292969 C 4.929688 -30.585938 5.199219 -30.933594 5.390625 -31.335938 C 5.378906 -31.3125 5.367188 -31.292969 5.363281 -31.277344 C 5.363281 -31.285156 5.367188 -31.296875 5.375 -31.3125 C 5.410156 -31.433594 5.4375 -31.578125 5.453125 -31.742188 C 5.4375 -31.585938 5.441406 -31.25 5.464844 -30.738281 L 6.554688 -4.480469 C 6.570312 -4.121094 6.59375 -3.832031 6.628906 -3.621094 C 6.636719 -3.574219 6.640625 -3.546875 6.644531 -3.535156 C 6.625 -3.601562 6.597656 -3.679688 6.558594 -3.773438 L 6.609375 -3.65625 L 6.652344 -3.535156 C 6.511719 -3.921875 6.292969 -4.265625 5.992188 -4.5625 C 5.757812 -4.792969 5.515625 -4.960938 5.257812 -5.066406 C 5.203125 -5.089844 5.15625 -5.105469 5.117188 -5.117188 C 5.125 -5.113281 5.144531 -5.109375 5.175781 -5.105469 C 5.34375 -5.085938 5.566406 -5.078125 5.84375 -5.089844 C 6.136719 -5.105469 6.378906 -5.125 6.574219 -5.160156 C 6.632812 -5.171875 6.683594 -5.179688 6.71875 -5.191406 C 6.722656 -5.191406 6.726562 -5.191406 6.726562 -5.191406 C 6.714844 -5.1875 6.703125 -5.183594 6.691406 -5.179688 C 6.507812 -5.109375 6.320312 -4.988281 6.121094 -4.824219 C 5.769531 -4.53125 5.496094 -4.183594 5.308594 -3.78125 C 5.324219 -3.808594 5.332031 -3.832031 5.339844 -3.851562 C 5.339844 -3.847656 5.335938 -3.839844 5.332031 -3.824219 C 5.292969 -3.699219 5.265625 -3.550781 5.25 -3.378906 C 5.261719 -3.511719 5.257812 -3.84375 5.234375 -4.378906 L 4.316406 -26.453125 L 24.117188 -5.671875 C 24.417969 -5.347656 24.640625 -5.140625 24.773438 -5.058594 C 24.691406 -5.109375 24.574219 -5.160156 24.425781 -5.207031 C 24.097656 -5.316406 23.738281 -5.363281 23.359375 -5.347656 C 23.089844 -5.335938 22.847656 -5.292969 22.632812 -5.21875 C 22.558594 -5.191406 22.507812 -5.171875 22.484375 -5.160156 C 22.667969 -5.265625 22.933594 -5.480469 23.269531 -5.796875 C 23.554688 -6.066406 23.730469 -6.253906 23.796875 -6.363281 C 23.742188 -6.269531 23.691406 -6.144531 23.640625 -5.992188 C 23.542969 -5.675781 23.5 -5.335938 23.515625 -4.972656 C 23.527344 -4.714844 23.566406 -4.476562 23.640625 -4.261719 C 23.671875 -4.171875 23.699219 -4.105469 23.722656 -4.0625 C 23.640625 -4.203125 23.449219 -4.429688 23.144531 -4.742188 C 21.136719 -6.878906 17.683594 -10.113281 12.785156 -14.441406 Z M 8.988281 -17.800781 "/></g></g></g><g fill="#ffffff" fill-opacity="1"><g transform="translate(102.669003, 46.515897)"><g><path d="M 26.300781 -34.25 L 39.015625 -7.855469 C 39.871094 -6.140625 40.296875 -4.632812 40.296875 -3.335938 C 40.292969 -1.535156 39.652344 0.078125 38.371094 1.507812 C 37.503906 2.476562 36.332031 3.332031 34.863281 4.0625 C 33.109375 4.933594 31.542969 5.371094 30.167969 5.367188 C 28.511719 5.367188 27.0625 4.917969 25.828125 4.023438 C 24.84375 3.3125 24.089844 2.476562 23.566406 1.523438 C 23.363281 1.152344 23.089844 0.625 22.746094 -0.0625 L 20.265625 -5.238281 L 24.636719 -7.332031 L 24.628906 -2.488281 L 11.535156 -2.507812 L 11.542969 -7.351562 L 15.90625 -5.246094 L 13.4375 -0.144531 C 13.039062 0.652344 12.71875 1.25 12.472656 1.648438 C 11.980469 2.453125 11.296875 3.183594 10.414062 3.851562 C 9.152344 4.804688 7.671875 5.28125 5.96875 5.28125 C 4.59375 5.277344 3.027344 4.835938 1.277344 3.957031 C -0.160156 3.261719 -1.320312 2.425781 -2.199219 1.453125 C -3.488281 0.0234375 -4.132812 -1.597656 -4.128906 -3.410156 C -4.128906 -4.707031 -3.6875 -6.234375 -2.808594 -7.984375 L 9.96875 -34.324219 C 10.71875 -35.886719 11.851562 -37.136719 13.359375 -38.070312 C 14.855469 -38.996094 16.457031 -39.460938 18.167969 -39.457031 C 19.976562 -39.453125 21.59375 -38.984375 23.027344 -38.050781 C 24.390625 -37.160156 25.472656 -35.914062 26.273438 -34.308594 Z M 17.601562 -29.988281 C 17.566406 -30.050781 17.546875 -30.089844 17.539062 -30.101562 C 17.585938 -30.046875 17.648438 -29.992188 17.734375 -29.9375 C 17.835938 -29.867188 17.941406 -29.820312 18.054688 -29.789062 C 18.089844 -29.777344 18.121094 -29.773438 18.148438 -29.769531 L 18.152344 -29.765625 C 18.285156 -29.765625 18.390625 -29.789062 18.464844 -29.835938 C 18.558594 -29.894531 18.632812 -29.980469 18.6875 -30.09375 L 5.851562 -3.636719 C 5.6875 -3.304688 5.570312 -3.050781 5.511719 -2.867188 C 5.503906 -2.851562 5.503906 -2.839844 5.5 -2.835938 C 5.503906 -2.851562 5.507812 -2.871094 5.515625 -2.894531 C 5.542969 -3.042969 5.558594 -3.207031 5.558594 -3.394531 C 5.558594 -3.769531 5.488281 -4.128906 5.34375 -4.46875 C 5.246094 -4.699219 5.128906 -4.890625 4.992188 -5.039062 C 4.96875 -5.066406 4.949219 -5.085938 4.9375 -5.097656 C 4.953125 -5.085938 4.976562 -5.066406 5.007812 -5.042969 C 5.148438 -4.949219 5.351562 -4.835938 5.625 -4.703125 C 5.933594 -4.546875 6.179688 -4.441406 6.359375 -4.382812 L 6.359375 -4.378906 C 6.25 -4.398438 6.125 -4.410156 5.984375 -4.410156 C 5.824219 -4.410156 5.644531 -4.378906 5.445312 -4.320312 C 5.132812 -4.230469 4.839844 -4.078125 4.566406 -3.871094 C 4.578125 -3.882812 4.585938 -3.886719 4.589844 -3.890625 C 4.574219 -3.875 4.554688 -3.859375 4.535156 -3.835938 C 4.421875 -3.722656 4.316406 -3.582031 4.214844 -3.417969 C 4.316406 -3.582031 4.484375 -3.898438 4.714844 -4.363281 L 8.507812 -12.203125 L 27.6875 -12.171875 L 31.421875 -4.382812 C 31.707031 -3.808594 31.921875 -3.390625 32.0625 -3.132812 C 31.886719 -3.453125 31.699219 -3.6875 31.5 -3.832031 C 31.234375 -4.023438 30.953125 -4.160156 30.65625 -4.246094 C 30.480469 -4.296875 30.320312 -4.320312 30.183594 -4.320312 C 30.042969 -4.320312 29.917969 -4.3125 29.8125 -4.292969 L 29.808594 -4.292969 C 29.992188 -4.351562 30.234375 -4.457031 30.546875 -4.613281 C 30.785156 -4.730469 30.972656 -4.839844 31.117188 -4.941406 C 31.152344 -4.964844 31.179688 -4.988281 31.199219 -5.003906 C 31.1875 -4.996094 31.175781 -4.980469 31.152344 -4.957031 C 31.027344 -4.8125 30.914062 -4.632812 30.820312 -4.410156 C 30.679688 -4.074219 30.609375 -3.722656 30.605469 -3.351562 C 30.605469 -3.164062 30.621094 -3 30.648438 -2.851562 C 30.65625 -2.828125 30.660156 -2.808594 30.664062 -2.792969 C 30.664062 -2.796875 30.660156 -2.808594 30.652344 -2.824219 C 30.59375 -3.007812 30.472656 -3.285156 30.289062 -3.652344 L 17.570312 -30.046875 Z M 22.449219 -18.703125 L 19.320312 -12.230469 L 14.957031 -14.34375 L 14.96875 -19.1875 L 21.253906 -19.175781 L 21.246094 -14.332031 L 16.890625 -12.210938 L 13.734375 -18.691406 L 18.089844 -20.8125 Z M 18.074219 -31.90625 L 29 -9.472656 L 7.238281 -9.511719 L 13.726562 -22.921875 Z M 18.074219 -31.90625 "/></g></g></g><g fill="#ffffff" fill-opacity="1"><g transform="translate(138.047655, 46.590897)"><g><path d="M 7.96875 -39.203125 L 16.699219 -38.746094 C 19.601562 -38.609375 22.324219 -37.949219 24.867188 -36.765625 C 27.382812 -35.59375 29.679688 -33.925781 31.753906 -31.761719 C 33.867188 -29.554688 35.425781 -27.109375 36.429688 -24.421875 C 37.433594 -21.738281 37.859375 -18.867188 37.71875 -15.804688 C 37.574219 -12.769531 36.898438 -9.953125 35.683594 -7.355469 C 34.472656 -4.765625 32.75 -2.433594 30.507812 -0.367188 C 28.261719 1.707031 25.789062 3.238281 23.089844 4.222656 C 20.390625 5.203125 17.511719 5.625 14.457031 5.480469 L 5.816406 5.074219 C 2.070312 4.898438 -0.453125 3.601562 -1.753906 1.183594 C -2.523438 -0.320312 -2.855469 -2.175781 -2.75 -4.386719 L -1.519531 -30.636719 C -1.472656 -31.609375 -1.398438 -32.375 -1.296875 -32.9375 C -1.128906 -33.847656 -0.757812 -34.785156 -0.1875 -35.742188 C 1.257812 -38.238281 3.96875 -39.390625 7.945312 -39.203125 Z M 7.488281 -29.527344 C 7.195312 -29.539062 6.949219 -29.539062 6.753906 -29.523438 C 6.695312 -29.515625 6.644531 -29.511719 6.609375 -29.503906 C 6.605469 -29.503906 6.601562 -29.503906 6.601562 -29.503906 C 6.609375 -29.507812 6.625 -29.507812 6.636719 -29.515625 C 6.824219 -29.570312 7.023438 -29.667969 7.234375 -29.816406 C 7.613281 -30.078125 7.914062 -30.402344 8.136719 -30.785156 C 8.121094 -30.757812 8.109375 -30.734375 8.097656 -30.71875 C 8.101562 -30.71875 8.105469 -30.730469 8.109375 -30.742188 C 8.160156 -30.863281 8.199219 -31.007812 8.230469 -31.179688 C 8.207031 -31.050781 8.183594 -30.71875 8.160156 -30.179688 L 6.925781 -3.933594 C 6.910156 -3.554688 6.914062 -3.261719 6.945312 -3.050781 C 6.949219 -3.03125 6.949219 -3.011719 6.953125 -3 C 6.953125 -3.003906 6.949219 -3.011719 6.945312 -3.027344 C 6.921875 -3.113281 6.867188 -3.238281 6.777344 -3.40625 C 6.566406 -3.804688 6.292969 -4.132812 5.957031 -4.390625 C 5.777344 -4.53125 5.609375 -4.632812 5.449219 -4.695312 C 5.4375 -4.699219 5.429688 -4.703125 5.421875 -4.703125 C 5.421875 -4.703125 5.429688 -4.703125 5.433594 -4.699219 C 5.472656 -4.691406 5.519531 -4.679688 5.574219 -4.671875 C 5.761719 -4.636719 5.996094 -4.617188 6.273438 -4.601562 L 14.910156 -4.199219 C 16.671875 -4.113281 18.292969 -4.34375 19.773438 -4.882812 C 21.253906 -5.421875 22.640625 -6.289062 23.9375 -7.488281 C 25.242188 -8.691406 26.234375 -10.015625 26.90625 -11.457031 C 27.578125 -12.898438 27.957031 -14.5 28.039062 -16.261719 C 28.121094 -18 27.890625 -19.589844 27.351562 -21.03125 C 26.816406 -22.472656 25.949219 -23.8125 24.757812 -25.058594 C 23.523438 -26.347656 22.195312 -27.320312 20.777344 -27.980469 C 19.386719 -28.628906 17.859375 -28.992188 16.195312 -29.070312 L 7.464844 -29.527344 Z M 15.445312 -12.546875 C 16.449219 -12.5 17.421875 -12.871094 18.359375 -13.65625 C 18.785156 -14.015625 19.101562 -14.402344 19.308594 -14.824219 C 19.519531 -15.261719 19.640625 -15.785156 19.671875 -16.394531 C 19.699219 -17.023438 19.628906 -17.578125 19.453125 -18.054688 C 19.289062 -18.515625 19.007812 -18.949219 18.621094 -19.363281 C 18.195312 -19.8125 17.75 -20.148438 17.285156 -20.363281 C 16.839844 -20.574219 16.339844 -20.6875 15.78125 -20.714844 L 11.25 -20.929688 L 11.476562 -25.765625 L 16.316406 -25.539062 L 15.476562 -7.695312 L 10.640625 -7.921875 L 10.867188 -12.761719 Z M 14.992188 -2.867188 L 5.574219 -3.308594 L 6.863281 -30.832031 L 16.234375 -30.394531 C 18.070312 -30.308594 19.785156 -29.890625 21.386719 -29.144531 C 22.96875 -28.402344 24.394531 -27.359375 25.664062 -26.011719 C 26.972656 -24.628906 27.9375 -23.078125 28.5625 -21.363281 C 29.175781 -19.667969 29.4375 -17.859375 29.347656 -15.9375 C 29.257812 -14 28.8125 -12.210938 28.015625 -10.574219 C 27.207031 -8.921875 26.066406 -7.472656 24.589844 -6.234375 C 23.191406 -5.0625 21.699219 -4.195312 20.113281 -3.625 C 18.46875 -3.039062 16.761719 -2.785156 14.992188 -2.867188 Z M 14.992188 -2.867188 "/></g></g></g><g fill="#ffffff" fill-opacity="1"><g transform="translate(170.763817, 48.275001)"><g><path d="M -0.617188 -30.621094 C -0.546875 -31.550781 -0.449219 -32.300781 -0.332031 -32.863281 C -0.136719 -33.796875 0.261719 -34.734375 0.863281 -35.683594 C 2.382812 -38.136719 5.128906 -39.210938 9.09375 -38.90625 C 10.878906 -38.769531 12.390625 -38.367188 13.625 -37.699219 C 14.476562 -37.238281 15.199219 -36.65625 15.792969 -35.953125 C 16.453125 -35.167969 16.917969 -34.277344 17.183594 -33.285156 L 17.214844 -33.164062 L 17.242188 -33.039062 C 17.453125 -32.039062 17.5 -30.757812 17.382812 -29.195312 L 15.375 -2.992188 C 15.300781 -2.019531 15.203125 -1.257812 15.082031 -0.699219 C 14.886719 0.207031 14.492188 1.132812 13.894531 2.070312 C 12.375 4.523438 9.628906 5.597656 5.660156 5.292969 C 3.851562 5.152344 2.328125 4.738281 1.082031 4.042969 C 0.21875 3.558594 -0.503906 2.949219 -1.089844 2.210938 C -1.734375 1.402344 -2.175781 0.492188 -2.414062 -0.523438 L 2.304688 -1.625 L -2.347656 -0.273438 C -2.660156 -1.355469 -2.753906 -2.734375 -2.625 -4.417969 Z M 9.042969 -29.878906 L 7.035156 -3.679688 C 7.007812 -3.320312 7 -3.03125 7.007812 -2.816406 C 7.011719 -2.769531 7.011719 -2.742188 7.011719 -2.730469 C 7.003906 -2.796875 6.984375 -2.878906 6.957031 -2.972656 L 6.992188 -2.851562 L 7.023438 -2.726562 C 6.929688 -3.128906 6.75 -3.496094 6.488281 -3.824219 C 6.285156 -4.082031 6.058594 -4.277344 5.816406 -4.414062 C 5.765625 -4.441406 5.722656 -4.464844 5.683594 -4.476562 C 5.691406 -4.476562 5.710938 -4.46875 5.742188 -4.460938 C 5.90625 -4.421875 6.125 -4.390625 6.402344 -4.367188 C 6.695312 -4.347656 6.941406 -4.339844 7.136719 -4.351562 C 7.195312 -4.355469 7.246094 -4.359375 7.28125 -4.363281 C 7.289062 -4.363281 7.289062 -4.363281 7.289062 -4.363281 C 7.28125 -4.363281 7.265625 -4.359375 7.253906 -4.355469 C 7.0625 -4.304688 6.863281 -4.210938 6.644531 -4.070312 C 6.261719 -3.820312 5.953125 -3.507812 5.71875 -3.128906 C 5.734375 -3.15625 5.75 -3.179688 5.757812 -3.195312 C 5.757812 -3.191406 5.753906 -3.183594 5.746094 -3.171875 C 5.691406 -3.050781 5.648438 -2.90625 5.609375 -2.738281 C 5.636719 -2.867188 5.671875 -3.199219 5.714844 -3.734375 L 7.71875 -29.933594 C 7.75 -30.328125 7.761719 -30.65625 7.757812 -30.910156 C 7.757812 -30.992188 7.753906 -31.058594 7.75 -31.105469 C 7.75 -31.09375 7.753906 -31.066406 7.765625 -31.023438 L 12.503906 -32.03125 L 7.824219 -30.78125 C 7.929688 -30.382812 8.117188 -30.027344 8.382812 -29.710938 C 8.578125 -29.476562 8.789062 -29.296875 9.015625 -29.175781 C 9.058594 -29.152344 9.09375 -29.136719 9.121094 -29.125 C 9.105469 -29.132812 9.082031 -29.140625 9.042969 -29.148438 C 8.867188 -29.191406 8.640625 -29.222656 8.355469 -29.246094 C 8.0625 -29.265625 7.816406 -29.273438 7.621094 -29.261719 C 7.558594 -29.257812 7.511719 -29.253906 7.476562 -29.25 C 7.46875 -29.25 7.46875 -29.25 7.46875 -29.25 C 7.476562 -29.25 7.488281 -29.253906 7.503906 -29.257812 C 7.691406 -29.308594 7.894531 -29.402344 8.109375 -29.542969 C 8.496094 -29.792969 8.804688 -30.105469 9.039062 -30.484375 C 9.027344 -30.460938 9.015625 -30.445312 9.007812 -30.429688 C 9.011719 -30.4375 9.015625 -30.445312 9.023438 -30.464844 C 9.074219 -30.578125 9.117188 -30.71875 9.152344 -30.878906 C 9.121094 -30.726562 9.082031 -30.394531 9.042969 -29.878906 Z M 9.042969 -29.878906 "/></g></g></g><g fill="#ffffff" fill-opacity="1"><g transform="translate(182.377554, 48.995394)"><g><path d="M 22.5625 -23.472656 L 30.921875 -22.578125 L 31.011719 -22.566406 C 32.445312 -22.359375 33.664062 -21.972656 34.679688 -21.410156 C 36.261719 -20.53125 37.328125 -19.285156 37.871094 -17.675781 L 33.28125 -16.125 L 37.785156 -17.914062 C 38.328125 -16.542969 38.496094 -14.878906 38.289062 -12.929688 L 37.183594 -2.589844 C 37.054688 -1.386719 36.675781 -0.253906 36.042969 0.808594 C 35.492188 1.734375 34.761719 2.578125 33.851562 3.339844 C 29.878906 6.664062 24.578125 7.972656 17.953125 7.265625 C 14.949219 6.945312 12.191406 6.070312 9.671875 4.640625 C 7.1875 3.230469 4.980469 1.304688 3.054688 -1.140625 C 1.125 -3.585938 -0.242188 -6.222656 -1.054688 -9.054688 C -1.859375 -11.878906 -2.097656 -14.847656 -1.765625 -17.964844 C -1.429688 -21.105469 -0.554688 -23.953125 0.859375 -26.511719 C 2.285156 -29.085938 4.234375 -31.320312 6.699219 -33.210938 C 9.121094 -35.066406 11.707031 -36.386719 14.457031 -37.167969 C 17.214844 -37.953125 20.097656 -38.183594 23.101562 -37.863281 C 27.859375 -37.355469 32.148438 -35.339844 35.960938 -31.820312 C 36.8125 -31.035156 37.460938 -30.171875 37.90625 -29.226562 C 38.464844 -28.039062 38.675781 -26.800781 38.539062 -25.519531 C 38.347656 -23.71875 37.488281 -21.96875 35.96875 -20.265625 C 33.441406 -17.503906 30.867188 -16.261719 28.238281 -16.542969 C 27.253906 -16.648438 26.230469 -17.011719 25.175781 -17.628906 C 24.503906 -18.023438 23.765625 -18.550781 22.957031 -19.210938 C 22.476562 -19.601562 21.808594 -19.84375 20.949219 -19.9375 C 19.808594 -20.058594 18.726562 -19.746094 17.707031 -19.003906 C 17.269531 -18.683594 16.933594 -18.3125 16.703125 -17.890625 C 16.4375 -17.414062 16.269531 -16.824219 16.195312 -16.117188 C 16.117188 -15.394531 16.164062 -14.734375 16.335938 -14.140625 C 16.503906 -13.558594 16.804688 -12.996094 17.242188 -12.449219 C 17.703125 -11.875 18.175781 -11.445312 18.667969 -11.164062 C 19.085938 -10.917969 19.550781 -10.769531 20.0625 -10.714844 C 21.152344 -10.597656 22.113281 -10.660156 22.941406 -10.902344 L 24.289062 -6.246094 L 19.472656 -6.761719 L 20.019531 -11.882812 L 24.835938 -11.371094 L 24.320312 -6.550781 L 20.609375 -6.949219 C 18.730469 -7.148438 17.238281 -7.675781 16.132812 -8.53125 C 15.433594 -9.070312 14.867188 -9.71875 14.4375 -10.472656 C 14.019531 -11.203125 13.746094 -11.992188 13.621094 -12.847656 C 13.488281 -13.75 13.488281 -14.824219 13.621094 -16.0625 C 13.757812 -17.332031 14.003906 -18.421875 14.363281 -19.320312 C 14.6875 -20.125 15.125 -20.824219 15.683594 -21.425781 C 16.351562 -22.140625 17.140625 -22.671875 18.054688 -23.011719 C 19.363281 -23.5 20.867188 -23.652344 22.5625 -23.472656 Z M 21.535156 -13.835938 C 21.363281 -13.855469 21.234375 -13.859375 21.152344 -13.855469 C 21.21875 -13.859375 21.316406 -13.886719 21.441406 -13.933594 C 21.957031 -14.125 22.402344 -14.421875 22.773438 -14.820312 C 23.039062 -15.105469 23.234375 -15.40625 23.359375 -15.722656 C 23.367188 -15.738281 23.371094 -15.75 23.375 -15.761719 L 23.375 -15.757812 C 23.367188 -15.730469 23.355469 -15.691406 23.347656 -15.644531 C 23.3125 -15.480469 23.28125 -15.277344 23.253906 -15.03125 C 23.226562 -14.769531 23.210938 -14.546875 23.210938 -14.371094 C 23.210938 -14.3125 23.210938 -14.265625 23.210938 -14.230469 C 23.210938 -14.226562 23.210938 -14.222656 23.210938 -14.222656 C 23.210938 -14.230469 23.210938 -14.242188 23.207031 -14.257812 C 23.15625 -14.613281 23.035156 -14.957031 22.84375 -15.289062 C 22.640625 -15.648438 22.375 -15.949219 22.058594 -16.195312 C 21.769531 -16.421875 21.5 -16.570312 21.257812 -16.640625 C 21.316406 -16.625 21.441406 -16.605469 21.636719 -16.582031 L 30.167969 -15.671875 L 28.761719 -2.5 L 25.636719 -1.59375 C 23.589844 -1 21.386719 -0.828125 19.03125 -1.082031 C 17.160156 -1.28125 15.417969 -1.847656 13.8125 -2.777344 C 12.273438 -3.667969 10.894531 -4.875 9.675781 -6.398438 C 8.433594 -7.949219 7.550781 -9.632812 7.027344 -11.453125 C 6.503906 -13.265625 6.347656 -15.160156 6.558594 -17.148438 C 6.773438 -19.152344 7.328125 -20.960938 8.222656 -22.582031 C 9.148438 -24.253906 10.40625 -25.667969 11.996094 -26.828125 C 15.03125 -29.042969 18.359375 -29.957031 21.980469 -29.570312 C 24.753906 -29.273438 27.125 -28.320312 29.09375 -26.707031 C 29.511719 -26.367188 29.835938 -26.125 30.074219 -25.988281 C 30.097656 -25.976562 30.109375 -25.96875 30.117188 -25.964844 C 30.097656 -25.972656 30.070312 -25.984375 30.035156 -26 C 29.8125 -26.085938 29.558594 -26.148438 29.269531 -26.175781 C 28.910156 -26.214844 28.574219 -26.191406 28.261719 -26.105469 C 28.117188 -26.066406 28.011719 -26.023438 27.9375 -25.980469 C 28.125 -26.09375 28.394531 -26.339844 28.746094 -26.722656 C 28.902344 -26.902344 29.003906 -27.03125 29.050781 -27.117188 C 28.980469 -26.984375 28.929688 -26.792969 28.902344 -26.550781 C 28.847656 -26.035156 28.925781 -25.554688 29.136719 -25.109375 C 29.230469 -24.90625 29.316406 -24.769531 29.390625 -24.699219 C 27.148438 -26.773438 24.707031 -27.949219 22.074219 -28.230469 C 20.316406 -28.417969 18.660156 -28.289062 17.105469 -27.847656 C 15.542969 -27.402344 14.039062 -26.625 12.59375 -25.519531 C 11.195312 -24.449219 10.109375 -23.214844 9.335938 -21.820312 C 8.554688 -20.40625 8.066406 -18.777344 7.867188 -16.9375 C 7.667969 -15.070312 7.800781 -13.332031 8.261719 -11.71875 C 8.722656 -10.113281 9.523438 -8.585938 10.664062 -7.140625 C 11.804688 -5.691406 13.070312 -4.574219 14.453125 -3.785156 C 15.804688 -3.019531 17.3125 -2.546875 18.980469 -2.371094 C 22.878906 -1.953125 25.765625 -2.527344 27.636719 -4.09375 C 27.691406 -4.136719 27.730469 -4.175781 27.753906 -4.203125 C 27.746094 -4.195312 27.734375 -4.175781 27.71875 -4.148438 C 27.625 -3.996094 27.570312 -3.820312 27.550781 -3.617188 L 28.652344 -13.957031 C 28.683594 -14.25 28.695312 -14.480469 28.683594 -14.640625 C 28.683594 -14.65625 28.679688 -14.664062 28.679688 -14.667969 C 28.683594 -14.660156 28.683594 -14.644531 28.6875 -14.628906 C 28.707031 -14.539062 28.738281 -14.441406 28.777344 -14.335938 L 28.730469 -14.453125 L 28.691406 -14.574219 C 28.835938 -14.148438 29.054688 -13.773438 29.347656 -13.449219 C 29.546875 -13.230469 29.753906 -13.0625 29.96875 -12.941406 C 30.015625 -12.917969 30.058594 -12.894531 30.09375 -12.882812 C 30.101562 -12.878906 30.101562 -12.878906 30.105469 -12.878906 C 30.097656 -12.878906 30.085938 -12.882812 30.074219 -12.886719 C 29.964844 -12.917969 29.816406 -12.949219 29.628906 -12.976562 L 30.320312 -17.769531 L 29.804688 -12.953125 Z M 21.535156 -13.835938 "/></g></g></g><g fill="#ffffff" fill-opacity="1"><g transform="translate(215.399893, 52.675242)"><g><path d="M 1.214844 -30.601562 C 1.339844 -31.527344 1.480469 -32.269531 1.628906 -32.824219 C 1.882812 -33.742188 2.335938 -34.660156 2.996094 -35.570312 C 4.65625 -37.925781 7.460938 -38.832031 11.402344 -38.292969 C 13.175781 -38.050781 14.660156 -37.558594 15.851562 -36.816406 C 16.675781 -36.304688 17.363281 -35.679688 17.914062 -34.945312 C 18.523438 -34.121094 18.933594 -33.207031 19.140625 -32.199219 L 19.164062 -32.074219 L 19.183594 -31.953125 C 19.335938 -30.9375 19.308594 -29.65625 19.09375 -28.101562 L 15.523438 -2.070312 C 15.394531 -1.101562 15.25 -0.347656 15.097656 0.203125 C 14.847656 1.097656 14.398438 1.996094 13.746094 2.898438 C 12.082031 5.253906 9.277344 6.160156 5.335938 5.621094 C 3.539062 5.375 2.039062 4.867188 0.839844 4.097656 C 0.0078125 3.5625 -0.679688 2.914062 -1.222656 2.144531 C -1.816406 1.296875 -2.203125 0.359375 -2.378906 -0.667969 L 2.398438 -1.484375 L -2.328125 -0.414062 C -2.574219 -1.511719 -2.585938 -2.894531 -2.355469 -4.570312 Z M 10.8125 -29.285156 L 7.242188 -3.253906 C 7.195312 -2.894531 7.167969 -2.605469 7.164062 -2.390625 C 7.164062 -2.34375 7.164062 -2.316406 7.164062 -2.304688 C 7.160156 -2.371094 7.144531 -2.457031 7.121094 -2.554688 L 7.152344 -2.429688 L 7.171875 -2.300781 C 7.101562 -2.710938 6.945312 -3.085938 6.703125 -3.429688 C 6.515625 -3.699219 6.304688 -3.90625 6.070312 -4.058594 C 6.019531 -4.089844 5.976562 -4.113281 5.941406 -4.128906 C 5.949219 -4.125 5.96875 -4.121094 5.996094 -4.109375 C 6.160156 -4.058594 6.375 -4.015625 6.652344 -3.976562 C 6.941406 -3.9375 7.1875 -3.917969 7.386719 -3.917969 C 7.445312 -3.917969 7.492188 -3.917969 7.53125 -3.921875 C 7.535156 -3.921875 7.539062 -3.921875 7.539062 -3.921875 C 7.527344 -3.917969 7.515625 -3.917969 7.5 -3.914062 C 7.308594 -3.875 7.101562 -3.792969 6.878906 -3.667969 C 6.476562 -3.441406 6.148438 -3.144531 5.894531 -2.78125 C 5.914062 -2.808594 5.925781 -2.828125 5.9375 -2.847656 C 5.9375 -2.84375 5.933594 -2.835938 5.925781 -2.820312 C 5.863281 -2.707031 5.808594 -2.566406 5.765625 -2.398438 C 5.800781 -2.523438 5.851562 -2.851562 5.925781 -3.386719 L 9.496094 -29.417969 C 9.546875 -29.8125 9.582031 -30.136719 9.589844 -30.394531 C 9.59375 -30.472656 9.59375 -30.539062 9.59375 -30.585938 C 9.59375 -30.574219 9.597656 -30.546875 9.605469 -30.503906 L 14.394531 -31.226562 L 9.648438 -30.257812 C 9.730469 -29.855469 9.894531 -29.488281 10.140625 -29.15625 C 10.324219 -28.910156 10.523438 -28.722656 10.742188 -28.585938 C 10.785156 -28.558594 10.816406 -28.542969 10.84375 -28.53125 C 10.832031 -28.535156 10.804688 -28.542969 10.769531 -28.554688 C 10.597656 -28.609375 10.371094 -28.65625 10.085938 -28.695312 C 9.796875 -28.734375 9.550781 -28.753906 9.355469 -28.753906 C 9.292969 -28.753906 9.246094 -28.753906 9.207031 -28.75 C 9.203125 -28.75 9.199219 -28.75 9.199219 -28.75 C 9.210938 -28.75 9.222656 -28.753906 9.238281 -28.757812 C 9.429688 -28.796875 9.636719 -28.878906 9.859375 -29.003906 C 10.261719 -29.230469 10.589844 -29.527344 10.84375 -29.890625 C 10.828125 -29.867188 10.816406 -29.851562 10.808594 -29.835938 C 10.8125 -29.84375 10.816406 -29.855469 10.828125 -29.871094 C 10.886719 -29.980469 10.9375 -30.117188 10.980469 -30.277344 C 10.9375 -30.125 10.882812 -29.796875 10.8125 -29.285156 Z M 10.8125 -29.285156 "/></g></g></g><g fill="#444a8b" fill-opacity="1"><g transform="translate(11.22541, 54.172597)"><g><path d="M 17.859375 -34.59375 L 33.6875 -9.9375 C 34.351562 -8.9375 34.71875 -8.171875 34.78125 -7.640625 C 34.914062 -6.515625 34.128906 -5.390625 32.421875 -4.265625 C 31.429688 -3.597656 30.628906 -3.226562 30.015625 -3.15625 C 29.398438 -3.082031 28.878906 -3.160156 28.453125 -3.390625 C 28.035156 -3.628906 27.722656 -3.894531 27.515625 -4.1875 C 27.304688 -4.476562 27.003906 -4.914062 26.609375 -5.5 L 23.5625 -10.296875 L 10.5625 -8.71875 L 8.75 -3.34375 C 8.507812 -2.675781 8.316406 -2.191406 8.171875 -1.890625 C 8.023438 -1.585938 7.773438 -1.265625 7.421875 -0.921875 C 7.078125 -0.578125 6.597656 -0.367188 5.984375 -0.296875 C 5.378906 -0.222656 4.507812 -0.390625 3.375 -0.796875 C 1.457031 -1.441406 0.429688 -2.328125 0.296875 -3.453125 C 0.234375 -3.984375 0.398438 -4.816406 0.796875 -5.953125 L 10.296875 -33.71875 C 10.546875 -34.476562 10.992188 -35.117188 11.640625 -35.640625 C 12.296875 -36.160156 13.019531 -36.46875 13.8125 -36.5625 C 15.488281 -36.769531 16.835938 -36.113281 17.859375 -34.59375 Z M 15.4375 -22.859375 L 13.09375 -16.0625 L 19.328125 -16.8125 Z M 15.4375 -22.859375 "/></g></g></g><g fill="#444a8b" fill-opacity="1"><g transform="translate(46.417227, 49.982494)"><g><path d="M 2.015625 -5.046875 C 1.128906 -5.984375 0.65625 -6.851562 0.59375 -7.65625 C 0.53125 -8.457031 1.113281 -9.570312 2.34375 -11 C 3.070312 -11.8125 3.878906 -12.253906 4.765625 -12.328125 C 5.648438 -12.398438 6.9375 -11.710938 8.625 -10.265625 C 9.101562 -9.765625 9.769531 -9.300781 10.625 -8.875 C 11.476562 -8.457031 12.25 -8.28125 12.9375 -8.34375 C 15.851562 -8.570312 17.21875 -9.878906 17.03125 -12.265625 C 16.976562 -12.984375 16.53125 -13.550781 15.6875 -13.96875 C 14.851562 -14.394531 13.832031 -14.664062 12.625 -14.78125 C 11.414062 -14.90625 10.097656 -15.15625 8.671875 -15.53125 C 7.242188 -15.914062 5.90625 -16.390625 4.65625 -16.953125 C 3.414062 -17.515625 2.34375 -18.484375 1.4375 -19.859375 C 0.53125 -21.234375 -0.00390625 -22.921875 -0.171875 -24.921875 C -0.390625 -27.679688 0.441406 -30.171875 2.328125 -32.390625 C 4.222656 -34.617188 6.945312 -35.875 10.5 -36.15625 C 12.394531 -36.3125 14.132812 -36.203125 15.71875 -35.828125 C 17.3125 -35.460938 18.425781 -35.050781 19.0625 -34.59375 L 20.3125 -33.8125 C 21.363281 -32.96875 21.910156 -32.226562 21.953125 -31.59375 C 22.003906 -30.96875 21.695312 -30.082031 21.03125 -28.9375 C 20.09375 -27.269531 19.0625 -26.394531 17.9375 -26.3125 C 17.269531 -26.257812 16.421875 -26.507812 15.390625 -27.0625 C 15.296875 -27.125 15.101562 -27.269531 14.8125 -27.5 C 14.53125 -27.726562 14.273438 -27.910156 14.046875 -28.046875 C 13.347656 -28.398438 12.488281 -28.535156 11.46875 -28.453125 C 10.445312 -28.367188 9.617188 -28.054688 8.984375 -27.515625 C 8.347656 -26.984375 8.0625 -26.28125 8.125 -25.40625 C 8.195312 -24.539062 8.65625 -23.875 9.5 -23.40625 C 10.34375 -22.945312 11.367188 -22.671875 12.578125 -22.578125 C 13.796875 -22.484375 15.125 -22.296875 16.5625 -22.015625 C 18.007812 -21.734375 19.347656 -21.351562 20.578125 -20.875 C 21.816406 -20.40625 22.894531 -19.5 23.8125 -18.15625 C 24.726562 -16.820312 25.265625 -15.132812 25.421875 -13.09375 C 25.585938 -11.050781 25.320312 -9.222656 24.625 -7.609375 C 23.925781 -5.992188 22.957031 -4.710938 21.71875 -3.765625 C 19.289062 -1.898438 16.628906 -0.851562 13.734375 -0.625 C 12.265625 -0.5 10.851562 -0.5625 9.5 -0.8125 C 8.15625 -1.070312 7.054688 -1.441406 6.203125 -1.921875 C 4.453125 -2.785156 3.207031 -3.660156 2.46875 -4.546875 Z M 2.015625 -5.046875 "/></g></g></g><g fill="#444a8b" fill-opacity="1"><g transform="translate(73.237552, 47.81894)"><g><path d="M 16 -18.0625 C 21.007812 -13.644531 24.566406 -10.316406 26.671875 -8.078125 C 27.753906 -6.953125 28.3125 -5.984375 28.34375 -5.171875 C 28.382812 -4.367188 27.796875 -3.398438 26.578125 -2.265625 C 25.367188 -1.128906 24.363281 -0.539062 23.5625 -0.5 C 22.757812 -0.46875 21.765625 -1.09375 20.578125 -2.375 L 9.671875 -13.78125 L 10.0625 -4.578125 C 10.09375 -3.828125 10.09375 -3.273438 10.0625 -2.921875 C 10.03125 -2.578125 9.898438 -2.164062 9.671875 -1.6875 C 9.265625 -0.8125 8.054688 -0.332031 6.046875 -0.25 C 3.835938 -0.15625 2.519531 -0.703125 2.09375 -1.890625 C 1.882812 -2.378906 1.757812 -3.175781 1.71875 -4.28125 L 0.625 -30.53125 C 0.59375 -31.257812 0.59375 -31.800781 0.625 -32.15625 C 0.65625 -32.519531 0.785156 -32.945312 1.015625 -33.4375 C 1.429688 -34.300781 2.644531 -34.773438 4.65625 -34.859375 C 6.851562 -34.953125 8.179688 -34.425781 8.640625 -33.28125 C 8.816406 -32.75 8.925781 -31.929688 8.96875 -30.828125 L 9.34375 -21.8125 C 13.4375 -26.800781 16.742188 -30.898438 19.265625 -34.109375 C 20.304688 -35.441406 21.234375 -36.125 22.046875 -36.15625 C 22.867188 -36.195312 23.929688 -35.695312 25.234375 -34.65625 C 26.535156 -33.625 27.203125 -32.707031 27.234375 -31.90625 C 27.273438 -31.101562 26.84375 -30.128906 25.9375 -28.984375 C 24.207031 -26.804688 21.5 -23.789062 17.8125 -19.9375 Z M 16 -18.0625 "/></g></g></g><g fill="#444a8b" fill-opacity="1"><g transform="translate(102.669003, 46.515897)"><g><path d="M 21.9375 -32.15625 L 34.65625 -5.75 C 35.1875 -4.675781 35.453125 -3.875 35.453125 -3.34375 C 35.453125 -2.207031 34.535156 -1.179688 32.703125 -0.265625 C 31.628906 0.253906 30.785156 0.515625 30.171875 0.515625 C 29.554688 0.515625 29.050781 0.375 28.65625 0.09375 C 28.269531 -0.1875 27.988281 -0.484375 27.8125 -0.796875 C 27.644531 -1.117188 27.398438 -1.59375 27.078125 -2.21875 L 24.640625 -7.328125 L 11.546875 -7.359375 L 9.078125 -2.25 C 8.765625 -1.625 8.519531 -1.164062 8.34375 -0.875 C 8.164062 -0.59375 7.878906 -0.300781 7.484375 0 C 7.097656 0.289062 6.597656 0.4375 5.984375 0.4375 C 5.367188 0.4375 4.523438 0.164062 3.453125 -0.375 C 1.617188 -1.257812 0.703125 -2.269531 0.703125 -3.40625 C 0.703125 -3.9375 0.976562 -4.738281 1.53125 -5.8125 L 14.328125 -32.203125 C 14.679688 -32.929688 15.210938 -33.515625 15.921875 -33.953125 C 16.628906 -34.390625 17.378906 -34.609375 18.171875 -34.609375 C 19.867188 -34.609375 21.125 -33.789062 21.9375 -32.15625 Z M 18.09375 -20.8125 L 14.96875 -14.34375 L 21.25 -14.34375 Z M 18.09375 -20.8125 "/></g></g></g><g fill="#444a8b" fill-opacity="1"><g transform="translate(138.047655, 46.590897)"><g><path d="M 7.71875 -34.375 L 16.453125 -33.90625 C 21.003906 -33.695312 24.9375 -31.863281 28.25 -28.40625 C 31.5625 -24.957031 33.101562 -20.832031 32.875 -16.03125 C 32.65625 -11.226562 30.769531 -7.191406 27.21875 -3.921875 C 23.675781 -0.648438 19.5 0.867188 14.6875 0.640625 L 6.046875 0.234375 C 4.128906 0.148438 2.953125 -0.300781 2.515625 -1.125 C 2.171875 -1.789062 2.03125 -2.800781 2.09375 -4.15625 L 3.328125 -30.40625 C 3.359375 -31.164062 3.40625 -31.71875 3.46875 -32.0625 C 3.53125 -32.40625 3.695312 -32.8125 3.96875 -33.28125 C 4.457031 -34.101562 5.707031 -34.46875 7.71875 -34.375 Z M 15.21875 -7.6875 C 17.488281 -7.582031 19.570312 -8.332031 21.46875 -9.9375 C 23.375 -11.539062 24.382812 -13.613281 24.5 -16.15625 C 24.625 -18.707031 23.835938 -20.882812 22.140625 -22.6875 C 20.453125 -24.488281 18.410156 -25.445312 16.015625 -25.5625 L 11.46875 -25.765625 L 10.625 -7.90625 Z M 15.21875 -7.6875 "/></g></g></g><g fill="#444a8b" fill-opacity="1"><g transform="translate(170.763817, 48.275001)"><g><path d="M 4.21875 -30.25 C 4.269531 -30.976562 4.332031 -31.519531 4.40625 -31.875 C 4.488281 -32.226562 4.671875 -32.632812 4.953125 -33.09375 C 5.453125 -33.90625 6.707031 -34.234375 8.71875 -34.078125 C 10.914062 -33.910156 12.175781 -33.226562 12.5 -32.03125 C 12.613281 -31.488281 12.628906 -30.664062 12.546875 -29.5625 L 10.53125 -3.359375 C 10.476562 -2.609375 10.414062 -2.0625 10.34375 -1.71875 C 10.269531 -1.382812 10.085938 -0.988281 9.796875 -0.53125 C 9.296875 0.28125 8.039062 0.613281 6.03125 0.46875 C 3.820312 0.289062 2.582031 -0.40625 2.3125 -1.625 C 2.15625 -2.144531 2.125 -2.953125 2.21875 -4.046875 Z M 4.21875 -30.25 "/></g></g></g><g fill="#444a8b" fill-opacity="1"><g transform="translate(182.377554, 48.995394)"><g><path d="M 22.0625 -18.640625 L 30.328125 -17.765625 C 32.003906 -17.523438 32.992188 -16.976562 33.296875 -16.125 C 33.535156 -15.5 33.59375 -14.609375 33.46875 -13.453125 L 32.359375 -3.109375 C 32.253906 -2.109375 31.71875 -1.203125 30.75 -0.390625 C 27.820312 2.054688 23.726562 3.003906 18.46875 2.453125 C 13.800781 1.953125 9.929688 -0.238281 6.859375 -4.125 C 3.796875 -8.019531 2.53125 -12.457031 3.0625 -17.4375 C 3.59375 -22.425781 5.789062 -26.398438 9.65625 -29.359375 C 13.519531 -32.328125 17.832031 -33.554688 22.59375 -33.046875 C 26.289062 -32.648438 29.65625 -31.0625 32.6875 -28.28125 C 33.457031 -27.550781 33.800781 -26.800781 33.71875 -26.03125 C 33.632812 -25.269531 33.179688 -24.421875 32.359375 -23.484375 C 30.960938 -21.960938 29.757812 -21.253906 28.75 -21.359375 C 28.15625 -21.421875 27.242188 -21.953125 26.015625 -22.953125 C 24.796875 -23.953125 23.28125 -24.550781 21.46875 -24.75 C 19.09375 -25 16.890625 -24.382812 14.859375 -22.90625 C 12.828125 -21.4375 11.664062 -19.34375 11.375 -16.625 C 11.09375 -13.914062 11.785156 -11.515625 13.453125 -9.421875 C 15.128906 -7.328125 17.160156 -6.148438 19.546875 -5.890625 C 21.265625 -5.710938 22.84375 -5.832031 24.28125 -6.25 L 24.828125 -11.359375 L 21.125 -11.765625 C 20.15625 -11.867188 19.476562 -12.066406 19.09375 -12.359375 C 18.71875 -12.660156 18.492188 -13.0625 18.421875 -13.5625 C 18.347656 -14.0625 18.351562 -14.722656 18.4375 -15.546875 C 18.53125 -16.378906 18.671875 -17.039062 18.859375 -17.53125 C 19.054688 -18.019531 19.351562 -18.335938 19.75 -18.484375 C 20.34375 -18.691406 21.113281 -18.742188 22.0625 -18.640625 Z M 22.0625 -18.640625 "/></g></g></g><g fill="#444a8b" fill-opacity="1"><g transform="translate(215.399893, 52.675242)"><g><path d="M 6.015625 -29.953125 C 6.109375 -30.671875 6.203125 -31.203125 6.296875 -31.546875 C 6.398438 -31.898438 6.609375 -32.296875 6.921875 -32.734375 C 7.472656 -33.503906 8.742188 -33.753906 10.734375 -33.484375 C 12.921875 -33.179688 14.140625 -32.425781 14.390625 -31.21875 C 14.472656 -30.675781 14.441406 -29.859375 14.296875 -28.765625 L 10.71875 -2.734375 C 10.613281 -1.984375 10.515625 -1.4375 10.421875 -1.09375 C 10.328125 -0.757812 10.125 -0.375 9.8125 0.0625 C 9.269531 0.84375 7.992188 1.097656 5.984375 0.828125 C 3.796875 0.523438 2.601562 -0.242188 2.40625 -1.484375 C 2.28125 -2.003906 2.296875 -2.816406 2.453125 -3.921875 Z M 6.015625 -29.953125 "/></g></g></g></g></g><g fill="#444a8b" fill-opacity="1"><g transform="translate(71.92938, 307.245918)"><g><path d="M 3.4375 0 L 3.4375 -8.875 L 0.40625 -8.875 L 0.40625 -10.40625 L 8.375 -10.40625 L 8.375 -8.875 L 5.328125 -8.875 L 5.328125 0 Z M 3.4375 0 "/></g></g></g><g fill="#444a8b" fill-opacity="1"><g transform="translate(84.448586, 307.245918)"><g><path d="M 1.015625 0 L 1.015625 -10.40625 L 4.828125 -10.40625 C 5.660156 -10.40625 6.347656 -10.257812 6.890625 -9.96875 C 7.429688 -9.6875 7.832031 -9.304688 8.09375 -8.828125 C 8.363281 -8.347656 8.5 -7.816406 8.5 -7.234375 C 8.5 -6.597656 8.332031 -6.015625 8 -5.484375 C 7.664062 -4.960938 7.148438 -4.585938 6.453125 -4.359375 L 8.609375 0 L 6.421875 0 L 4.484375 -4.09375 L 2.90625 -4.09375 L 2.90625 0 Z M 2.90625 -5.5 L 4.703125 -5.5 C 5.335938 -5.5 5.800781 -5.648438 6.09375 -5.953125 C 6.394531 -6.265625 6.546875 -6.671875 6.546875 -7.171875 C 6.546875 -7.671875 6.398438 -8.066406 6.109375 -8.359375 C 5.816406 -8.660156 5.347656 -8.8125 4.703125 -8.8125 L 2.90625 -8.8125 Z M 2.90625 -5.5 "/></g></g></g><g fill="#444a8b" fill-opacity="1"><g transform="translate(97.442916, 307.245918)"><g><path d="M 0.34375 0 L 4.140625 -10.40625 L 6.28125 -10.40625 L 10.09375 0 L 8.0625 0 L 7.234375 -2.40625 L 3.1875 -2.40625 L 2.328125 0 Z M 3.703125 -3.890625 L 6.71875 -3.890625 L 5.203125 -8.21875 Z M 3.703125 -3.890625 "/></g></g></g><g fill="#444a8b" fill-opacity="1"><g transform="translate(110.273047, 307.245918)"><g><path d="M 4.03125 0 L 0.21875 -10.40625 L 2.265625 -10.40625 L 5.203125 -1.953125 L 8.15625 -10.40625 L 10.15625 -10.40625 L 6.359375 0 Z M 4.03125 0 "/></g></g></g><g fill="#444a8b" fill-opacity="1"><g transform="translate(124.395799, 307.245918)"><g><path d="M 1.015625 0 L 1.015625 -10.40625 L 7.796875 -10.40625 L 7.796875 -8.875 L 2.90625 -8.875 L 2.90625 -6.015625 L 7.359375 -6.015625 L 7.359375 -4.53125 L 2.90625 -4.53125 L 2.90625 -1.53125 L 7.796875 -1.53125 L 7.796875 0 Z M 1.015625 0 "/></g></g></g><g fill="#444a8b" fill-opacity="1"><g transform="translate(136.72199, 307.245918)"><g><path d="M 1.015625 0 L 1.015625 -10.40625 L 2.90625 -10.40625 L 2.90625 -1.484375 L 7.515625 -1.484375 L 7.515625 0 Z M 1.015625 0 "/></g></g></g><g fill="#444a8b" fill-opacity="1"><g transform="translate(148.647293, 307.245918)"><g/></g></g><g fill="#444a8b" fill-opacity="1"><g transform="translate(155.925289, 307.245918)"><g><path d="M 1.015625 0 L 1.015625 -10.40625 L 2.90625 -10.40625 L 2.90625 -6.078125 L 7.578125 -6.078125 L 7.578125 -10.40625 L 9.484375 -10.40625 L 9.484375 0 L 7.578125 0 L 7.578125 -4.53125 L 2.90625 -4.53125 L 2.90625 0 Z M 1.015625 0 "/></g></g></g><g fill="#444a8b" fill-opacity="1"><g transform="translate(170.151976, 307.245918)"><g><path d="M 0.34375 0 L 4.140625 -10.40625 L 6.28125 -10.40625 L 10.09375 0 L 8.0625 0 L 7.234375 -2.40625 L 3.1875 -2.40625 L 2.328125 0 Z M 3.703125 -3.890625 L 6.71875 -3.890625 L 5.203125 -8.21875 Z M 3.703125 -3.890625 "/></g></g></g><g fill="#444a8b" fill-opacity="1"><g transform="translate(184.304426, 307.245918)"><g><path d="M 3.734375 0.171875 C 2.722656 0.171875 1.910156 -0.109375 1.296875 -0.671875 C 0.691406 -1.242188 0.390625 -2.054688 0.390625 -3.109375 L 2.28125 -3.109375 C 2.289062 -2.617188 2.40625 -2.226562 2.625 -1.9375 C 2.84375 -1.65625 3.195312 -1.515625 3.6875 -1.515625 C 4.144531 -1.515625 4.476562 -1.648438 4.6875 -1.921875 C 4.894531 -2.191406 5 -2.550781 5 -3 L 5 -10.40625 L 6.890625 -10.40625 L 6.890625 -3 C 6.890625 -1.976562 6.601562 -1.191406 6.03125 -0.640625 C 5.46875 -0.0976562 4.703125 0.171875 3.734375 0.171875 Z M 3.734375 0.171875 "/></g></g></g><g fill="#444a8b" fill-opacity="1"><g transform="translate(195.947621, 307.245918)"><g><path d="M 1.015625 0 L 1.015625 -10.40625 L 2.90625 -10.40625 L 2.90625 0 Z M 1.015625 0 "/></g></g></g><g fill="#444a8b" fill-opacity="1"><g transform="translate(203.611649, 307.245918)"><g/></g></g><g fill="#444a8b" fill-opacity="1"><g transform="translate(210.889645, 307.245918)"><g><path d="M 4.34375 0.15625 C 3.570312 0.15625 2.90625 0.0234375 2.34375 -0.234375 C 1.78125 -0.492188 1.34375 -0.859375 1.03125 -1.328125 C 0.71875 -1.804688 0.5625 -2.363281 0.5625 -3 C 0.5625 -3.675781 0.75 -4.285156 1.125 -4.828125 C 1.5 -5.367188 2.0625 -5.804688 2.8125 -6.140625 C 2.507812 -6.484375 2.289062 -6.804688 2.15625 -7.109375 C 2.03125 -7.421875 1.96875 -7.75 1.96875 -8.09375 C 1.96875 -8.570312 2.085938 -8.992188 2.328125 -9.359375 C 2.566406 -9.734375 2.90625 -10.03125 3.34375 -10.25 C 3.789062 -10.46875 4.320312 -10.578125 4.9375 -10.578125 C 5.5625 -10.578125 6.085938 -10.460938 6.515625 -10.234375 C 6.953125 -10.003906 7.28125 -9.695312 7.5 -9.3125 C 7.726562 -8.925781 7.832031 -8.5 7.8125 -8.03125 L 6 -8.03125 C 6 -8.394531 5.890625 -8.664062 5.671875 -8.84375 C 5.460938 -9.03125 5.210938 -9.125 4.921875 -9.125 C 4.578125 -9.125 4.300781 -9.03125 4.09375 -8.84375 C 3.894531 -8.65625 3.796875 -8.410156 3.796875 -8.109375 C 3.796875 -7.859375 3.875 -7.601562 4.03125 -7.34375 C 4.195312 -7.09375 4.429688 -6.800781 4.734375 -6.46875 L 7.65625 -3.578125 C 7.863281 -3.921875 8.082031 -4.3125 8.3125 -4.75 L 8.640625 -5.40625 L 10.578125 -5.40625 L 10.0625 -4.390625 C 9.664062 -3.585938 9.269531 -2.910156 8.875 -2.359375 L 11.265625 0 L 8.984375 0 L 7.828125 -1.15625 C 7.328125 -0.6875 6.789062 -0.347656 6.21875 -0.140625 C 5.644531 0.0546875 5.019531 0.15625 4.34375 0.15625 Z M 2.40625 -3.125 C 2.40625 -2.632812 2.582031 -2.222656 2.9375 -1.890625 C 3.300781 -1.554688 3.785156 -1.390625 4.390625 -1.390625 C 5.253906 -1.390625 6.003906 -1.695312 6.640625 -2.3125 L 3.890625 -5.03125 C 3.390625 -4.8125 3.015625 -4.539062 2.765625 -4.21875 C 2.523438 -3.894531 2.40625 -3.53125 2.40625 -3.125 Z M 2.40625 -3.125 "/></g></g></g><g fill="#444a8b" fill-opacity="1"><g transform="translate(226.096278, 307.245918)"><g/></g></g><g fill="#444a8b" fill-opacity="1"><g transform="translate(233.374274, 307.245918)"><g><path d="M 5.015625 0.171875 C 4.253906 0.171875 3.566406 0.0195312 2.953125 -0.28125 C 2.335938 -0.582031 1.847656 -1.039062 1.484375 -1.65625 C 1.128906 -2.269531 0.953125 -3.046875 0.953125 -3.984375 L 0.953125 -10.40625 L 2.859375 -10.40625 L 2.859375 -3.96875 C 2.859375 -3.15625 3.050781 -2.550781 3.4375 -2.15625 C 3.832031 -1.757812 4.375 -1.5625 5.0625 -1.5625 C 5.75 -1.5625 6.289062 -1.757812 6.6875 -2.15625 C 7.082031 -2.550781 7.28125 -3.15625 7.28125 -3.96875 L 7.28125 -10.40625 L 9.1875 -10.40625 L 9.1875 -3.984375 C 9.1875 -3.046875 8.992188 -2.269531 8.609375 -1.65625 C 8.234375 -1.039062 7.734375 -0.582031 7.109375 -0.28125 C 6.484375 0.0195312 5.785156 0.171875 5.015625 0.171875 Z M 5.015625 0.171875 "/></g></g></g><g fill="#444a8b" fill-opacity="1"><g transform="translate(247.229772, 307.245918)"><g><path d="M 1.015625 0 L 1.015625 -10.40625 L 3.265625 -10.40625 L 6.578125 -3.796875 L 9.859375 -10.40625 L 12.109375 -10.40625 L 12.109375 0 L 10.203125 0 L 10.203125 -7.171875 L 7.3125 -1.484375 L 5.8125 -1.484375 L 2.90625 -7.171875 L 2.90625 0 Z M 1.015625 0 "/></g></g></g><g fill="#444a8b" fill-opacity="1"><g transform="translate(264.084504, 307.245918)"><g><path d="M 1.015625 0 L 1.015625 -10.40625 L 4.828125 -10.40625 C 5.660156 -10.40625 6.347656 -10.257812 6.890625 -9.96875 C 7.429688 -9.6875 7.832031 -9.304688 8.09375 -8.828125 C 8.363281 -8.347656 8.5 -7.816406 8.5 -7.234375 C 8.5 -6.597656 8.332031 -6.015625 8 -5.484375 C 7.664062 -4.960938 7.148438 -4.585938 6.453125 -4.359375 L 8.609375 0 L 6.421875 0 L 4.484375 -4.09375 L 2.90625 -4.09375 L 2.90625 0 Z M 2.90625 -5.5 L 4.703125 -5.5 C 5.335938 -5.5 5.800781 -5.648438 6.09375 -5.953125 C 6.394531 -6.265625 6.546875 -6.671875 6.546875 -7.171875 C 6.546875 -7.671875 6.398438 -8.066406 6.109375 -8.359375 C 5.816406 -8.660156 5.347656 -8.8125 4.703125 -8.8125 L 2.90625 -8.8125 Z M 2.90625 -5.5 "/></g></g></g><g fill="#444a8b" fill-opacity="1"><g transform="translate(277.078812, 307.245918)"><g><path d="M 5.890625 0.171875 C 4.847656 0.171875 3.9375 -0.0507812 3.15625 -0.5 C 2.375 -0.957031 1.765625 -1.585938 1.328125 -2.390625 C 0.890625 -3.203125 0.671875 -4.140625 0.671875 -5.203125 C 0.671875 -6.265625 0.890625 -7.195312 1.328125 -8 C 1.765625 -8.8125 2.375 -9.441406 3.15625 -9.890625 C 3.9375 -10.347656 4.847656 -10.578125 5.890625 -10.578125 C 6.921875 -10.578125 7.828125 -10.347656 8.609375 -9.890625 C 9.390625 -9.441406 9.992188 -8.8125 10.421875 -8 C 10.859375 -7.195312 11.078125 -6.265625 11.078125 -5.203125 C 11.078125 -4.140625 10.859375 -3.203125 10.421875 -2.390625 C 9.992188 -1.585938 9.390625 -0.957031 8.609375 -0.5 C 7.828125 -0.0507812 6.921875 0.171875 5.890625 0.171875 Z M 5.890625 -1.53125 C 6.878906 -1.53125 7.664062 -1.851562 8.25 -2.5 C 8.84375 -3.15625 9.140625 -4.054688 9.140625 -5.203125 C 9.140625 -6.335938 8.84375 -7.234375 8.25 -7.890625 C 7.664062 -8.546875 6.878906 -8.875 5.890625 -8.875 C 4.890625 -8.875 4.09375 -8.546875 3.5 -7.890625 C 2.90625 -7.234375 2.609375 -6.335938 2.609375 -5.203125 C 2.609375 -4.054688 2.90625 -3.15625 3.5 -2.5 C 4.09375 -1.851562 4.890625 -1.53125 5.890625 -1.53125 Z M 5.890625 -1.53125 "/></g></g></g><g fill="#444a8b" fill-opacity="1"><g transform="translate(292.567565, 307.245918)"><g><path d="M 1.015625 0 L 1.015625 -10.40625 L 2.90625 -10.40625 L 2.90625 -6.078125 L 7.578125 -6.078125 L 7.578125 -10.40625 L 9.484375 -10.40625 L 9.484375 0 L 7.578125 0 L 7.578125 -4.53125 L 2.90625 -4.53125 L 2.90625 0 Z M 1.015625 0 "/></g></g></g></svg>